SplineFontDB: 3.0
FontName: Bodoni-16-Fatface-Italic
FullName: Bodoni* 16 Fatface Italic
FamilyName: Bodoni* 16 Fatface
Weight: Fatface
Copyright: Copyright (c) 2020, indestructible type* (https://github.com/indestructible-type)
Version: 002.1
ItalicAngle: -13
UnderlinePosition: -200
UnderlineWidth: 0
Ascent: 1600
Descent: 400
InvalidEm: 0
LayerCount: 2
Layer: 0 0 "Back" 1
Layer: 1 0 "Fore" 0
PreferredKerning: 4
XUID: [1021 31 -699969567 16487490]
FSType: 0
OS2Version: 0
OS2_WeightWidthSlopeOnly: 0
OS2_UseTypoMetrics: 1
CreationTime: 1460762150
ModificationTime: 1580547509
PfmFamily: 17
TTFWeight: 900
TTFWidth: 5
LineGap: 0
VLineGap: 0
OS2TypoAscent: 200
OS2TypoAOffset: 0
OS2TypoDescent: -800
OS2TypoDOffset: 0
OS2TypoLinegap: 0
OS2WinAscent: 2000
OS2WinAOffset: 0
OS2WinDescent: 800
OS2WinDOffset: 0
HheadAscent: 2000
HheadAOffset: 0
HheadDescent: -800
HheadDOffset: 0
OS2CapHeight: 1500
OS2XHeight: 920
OS2FamilyClass: 768
OS2Vendor: 'it* '
OS2UnicodeRanges: 00000001.00000000.00000000.00000000
Lookup: 1 0 0 "'ss04' Style Set 4 lookup 5" { "'ss04' Style Set 4 lookup 5-1"  } ['ss04' ('DFLT' <'dflt' > 'grek' <'dflt' > 'latn' <'dflt' > ) ]
Lookup: 1 0 0 "'ss02' Style Set 2 lookup 4" { "'ss02' Style Set 2 lookup 4-1"  } ['ss02' ('DFLT' <'dflt' > 'grek' <'dflt' > 'latn' <'dflt' > ) ]
Lookup: 1 0 0 "'ss03' Style Set 3 lookup 5" { "'ss03' Style Set 3 lookup 5-1"  } ['ss03' ('DFLT' <'dflt' > 'grek' <'dflt' > 'latn' <'dflt' > ) ]
Lookup: 1 0 0 "'ss01' Style Set 1 lookup 2" { "'ss01' Style Set 1 lookup 2-1"  } ['ss01' ('DFLT' <'dflt' > 'grek' <'dflt' > 'latn' <'dflt' > ) ]
Lookup: 5 0 0 "'calt' Contextual Alternates lookup 3" { "'calt' Contextual Alternates lookup 3-1"  } ['calt' ('DFLT' <'dflt' > 'grek' <'dflt' > 'latn' <'dflt' > ) ]
Lookup: 4 0 1 "'liga' Standard Ligatures lookup 0" { "'liga' Standard Ligatures lookup 0-1"  } ['liga' ('DFLT' <'dflt' > 'grek' <'dflt' > 'latn' <'dflt' > ) ]

StartChar: ampersand
Encoding: 38 38 0
GlifName: ampersand
Width: 1777
Flags: HMW
LayerCount: 2
Fore
SplineSet
894 976 m 17
 959 1071 982 1169 982 1256 c 0
 982 1369 974 1496 908 1496 c 0
 840 1496 826 1366 826 1240 c 0
 826 1170 850 1054 924 940 c 2
 1392 190 l 2
 1446 104 1488 42 1568 42 c 0
 1640 42 1681 78 1718 148 c 1
 1738 140 l 1
 1700 52 1618 -20 1420 -20 c 0
 1274 -20 1102 6 942 242 c 2
 488 940 l 2
 432 1022 416 1096 416 1166 c 0
 416 1366 666 1520 938 1520 c 0
 1112 1520 1370 1450 1370 1250 c 0
 1370 1026 1005 974 897 949 c 5
 894 976 l 17
574 816 m 9
 592 797 l 1
 488 708 460 524 460 399 c 0
 460 121 690 57 858 57 c 0
 1227 57 1647 362 1667 640 c 2
 1670 674 l 17
 1646 546 1550 470 1442 470 c 0
 1322 470 1236 574 1236 684 c 0
 1236 804 1346 898 1460 898 c 0
 1576 898 1698 804 1698 652 c 0
 1698 372 1268 -20 618 -20 c 0
 352 -20 40 48 40 329 c 0
 40 596 275 723 574 816 c 9
EndSplineSet
EndChar

StartChar: period
Encoding: 46 46 1
GlifName: period
Width: 639
Flags: HMW
LayerCount: 2
Fore
SplineSet
80 220 m 0
 80 352 188 460 320 460 c 0
 452 460 560 352 560 220 c 0
 560 88 452 -20 320 -20 c 0
 188 -20 80 88 80 220 c 0
EndSplineSet
EndChar

StartChar: zero
Encoding: 48 48 2
GlifName: zero
Width: 1399
Flags: HMW
LayerCount: 2
Fore
SplineSet
964 1520 m 0
 1260 1520 1446 1290 1446 1032 c 0
 1446 454 1046 -20 624 -20 c 0
 328 -20 142 210 142 468 c 0
 142 1046 542 1520 964 1520 c 0
964 1496 m 0
 742 1496 538 510 538 188 c 0
 538 68 550 4 624 4 c 0
 846 4 1050 1030 1050 1312 c 0
 1050 1432 1038 1496 964 1496 c 0
EndSplineSet
EndChar

StartChar: one
Encoding: 49 49 3
GlifName: one
Width: 1109
VWidth: 2309
Flags: HMW
LayerCount: 2
Fore
SplineSet
-80 28 m 1
 790 28 l 1
 790 0 l 1
 -80 0 l 1
 -80 28 l 1
472 1472 m 1
 244 1472 l 1
 244 1500 l 1
 910 1500 l 1
 570 0 l 1
 140 0 l 1
 472 1472 l 1
EndSplineSet
EndChar

StartChar: two
Encoding: 50 50 4
GlifName: two
Width: 1319
VWidth: 2309
Flags: HMW
LayerCount: 2
Fore
SplineSet
232 1106 m 1
 254 1186 344 1264 452 1264 c 0
 576 1264 664 1178 664 1062 c 0
 664 922 534 824 424 824 c 0
 314 824 190 894 190 1058 c 0
 190 1292 476 1520 830 1520 c 0
 1032 1520 1294 1460 1294 1208 c 0
 1294 940 832 752 632 630 c 2
 290 420 l 1
 1138 420 l 1
 1174 570 l 1
 1202 570 l 1
 1068 0 l 1
 -82 0 l 1
 -14 270 l 1
 476 572 l 2
 720 722 850 992 850 1188 c 0
 850 1344 782 1432 626 1432 c 0
 450 1432 246 1266 232 1106 c 1
EndSplineSet
EndChar

StartChar: three
Encoding: 51 51 5
GlifName: three
Width: 1261
VWidth: 2309
Flags: HMW
LayerCount: 2
Fore
SplineSet
280 1200 m 0
 280 1384 498 1518 742 1518 c 0
 1004 1518 1282 1444 1282 1204 c 0
 1282 944 958 804 496 804 c 1
 496 824 l 1
 814 824 860 1174 860 1302 c 0
 860 1450 810 1486 692 1486 c 0
 582 1486 454 1434 392 1362 c 1
 408 1378 456 1398 514 1398 c 0
 636 1398 708 1298 708 1188 c 0
 708 1068 604 976 494 976 c 0
 374 976 280 1078 280 1200 c 0
10 362 m 0
 10 504 100 602 230 602 c 0
 350 602 438 502 438 390 c 0
 438 266 342 180 224 180 c 0
 160 180 98 208 74 232 c 1
 112 140 230 10 442 10 c 0
 680 10 740 372 740 560 c 0
 740 708 674 798 496 798 c 1
 496 818 l 1
 918 818 1162 712 1162 472 c 0
 1162 140 784 -20 462 -20 c 0
 158 -20 10 198 10 362 c 0
EndSplineSet
EndChar

StartChar: four
Encoding: 52 52 6
GlifName: four
Width: 1451
VWidth: 2309
Flags: HMW
LayerCount: 2
Fore
SplineSet
1200 28 m 1
 1200 0 l 1
 430 0 l 1
 430 28 l 1
 1200 28 l 1
1432 1500 m 1
 1030 0 l 1
 600 0 l 1
 926 1310 l 1
 144 444 l 1
 1350 444 l 1
 1350 416 l 1
 84 416 l 1
 1066 1500 l 1
 1432 1500 l 1
EndSplineSet
Substitution2: "'ss03' Style Set 3 lookup 5-1" four.alt
EndChar

StartChar: five
Encoding: 53 53 7
GlifName: five
Width: 1253
VWidth: 2309
Flags: HMW
LayerCount: 2
Fore
SplineSet
1172 540 m 0
 1172 160 734 -20 432 -20 c 0
 148 -20 0 134 0 318 c 0
 0 440 94 542 214 542 c 0
 324 542 428 450 428 330 c 0
 428 200 332 120 214 120 c 0
 138 120 84 162 68 182 c 1
 118 84 222 6 412 6 c 0
 670 6 742 412 742 640 c 0
 742 788 670 840 572 840 c 0
 454 840 312 784 244 694 c 1
 218 694 l 1
 290 808 474 880 656 880 c 0
 938 880 1172 800 1172 540 c 0
1242 1080 m 1
 364 1080 l 1
 230 694 l 1
 206 694 l 1
 474 1500 l 1
 1310 1500 l 1
 1336 1610 l 1
 1364 1610 l 1
 1242 1080 l 1
EndSplineSet
EndChar

StartChar: six
Encoding: 54 54 8
GlifName: six
Width: 1319
VWidth: 2309
Flags: HMW
LayerCount: 2
Fore
SplineSet
840 780 m 0
 840 888 826 926 778 926 c 0
 596 926 506 372 506 160 c 1
 476 160 l 1
 476 372 520 990 850 990 c 0
 1052 990 1280 880 1280 600 c 0
 1280 220 910 -20 568 -20 c 0
 306 -20 100 120 100 440 c 0
 100 946 644 1520 1330 1520 c 1
 1330 1496 l 1
 798 1496 508 752 508 368 c 1
 506 160 l 1
 506 72 530 8 582 8 c 0
 722 8 840 572 840 780 c 0
EndSplineSet
EndChar

StartChar: seven
Encoding: 55 55 9
GlifName: seven
Width: 1215
VWidth: 2309
Flags: HMW
LayerCount: 2
Fore
SplineSet
272 212 m 0
 272 410 530 534 718 728 c 0
 848 862 900 920 1024 1070 c 1
 292 1070 l 1
 258 920 l 1
 230 920 l 1
 362 1500 l 1
 1416 1500 l 1
 1416 1500 1062 1052 832 804 c 0
 680 640 620 594 620 504 c 0
 620 418 752 348 752 216 c 0
 752 82 652 -20 504 -20 c 0
 376 -20 272 54 272 212 c 0
EndSplineSet
EndChar

StartChar: eight
Encoding: 56 56 10
GlifName: eight
Width: 1339
VWidth: 2309
Flags: HMW
LayerCount: 2
Fore
SplineSet
660 900 m 0
 660 852 662 784 704 784 c 0
 822 784 920 1192 920 1380 c 0
 920 1408 918 1492 866 1492 c 0
 788 1492 660 1088 660 900 c 0
240 1050 m 0
 240 1290 528 1520 870 1520 c 0
 1172 1520 1340 1350 1340 1190 c 0
 1340 930 992 762 710 762 c 0
 468 762 240 890 240 1050 c 0
460 160 m 0
 460 72 472 8 530 8 c 0
 668 8 780 412 780 600 c 0
 780 688 768 756 710 756 c 0
 572 756 460 348 460 160 c 0
60 300 m 0
 60 540 268 778 670 778 c 0
 1012 778 1200 660 1200 460 c 0
 1200 220 992 -20 590 -20 c 0
 248 -20 60 100 60 300 c 0
EndSplineSet
EndChar

StartChar: A
Encoding: 65 65 12
GlifName: A_
Width: 1639
Flags: HMW
LayerCount: 2
Fore
SplineSet
-100 28 m 1
 340 28 l 1
 340 0 l 1
 -100 0 l 1
 -100 28 l 1
680 28 m 1
 1500 28 l 1
 1500 0 l 1
 680 0 l 1
 680 28 l 1
364 504 m 1
 1020 504 l 1
 1020 476 l 1
 364 476 l 1
 364 504 l 1
788 1200 m 1
 96 0 l 1
 62 0 l 1
 944 1530 l 1
 1170 1530 l 1
 1360 0 l 1
 910 0 l 1
 788 1200 l 1
EndSplineSet
EndChar

StartChar: B
Encoding: 66 66 13
GlifName: B_
Width: 1479
Flags: HMW
LayerCount: 2
Fore
SplineSet
640 0 m 2
 -100 0 l 1
 -100 28 l 1
 640 28 l 2
 782 28 920 222 920 520 c 0
 920 698 864 756 752 756 c 2
 540 756 l 1
 540 778 l 1
 812 778 l 2
 1094 778 1380 700 1380 440 c 0
 1380 140 1002 0 640 0 c 2
430 1500 m 1
 860 1500 l 1
 510 0 l 1
 80 0 l 1
 430 1500 l 1
780 762 m 2
 540 762 l 1
 540 784 l 1
 780 784 l 2
 932 784 1050 1012 1050 1270 c 0
 1050 1388 1012 1472 920 1472 c 2
 250 1472 l 1
 250 1500 l 1
 930 1500 l 2
 1292 1500 1490 1410 1490 1170 c 0
 1490 890 1102 762 780 762 c 2
EndSplineSet
EndChar

StartChar: C
Encoding: 67 67 14
GlifName: C_
Width: 1455
Flags: HMW
LayerCount: 2
Fore
SplineSet
710 -20 m 0
 344 -20 100 184 100 510 c 0
 100 1056 504 1520 1010 1520 c 0
 1286 1520 1424 1316 1480 1030 c 1
 1452 1030 l 1
 1376 1350 1218 1474 1090 1474 c 0
 722 1474 540 714 540 350 c 0
 540 166 558 22 766 22 c 0
 974 22 1162 242 1342 470 c 1
 1370 470 l 1
 1210 224 996 -20 710 -20 c 0
1452 1030 m 1
 1430 1176 l 1
 1418 1216 1340 1330 1320 1354 c 1
 1566 1500 l 1
 1586 1500 l 1
 1480 1030 l 1
 1452 1030 l 1
1342 470 m 1
 1370 470 l 1
 1260 0 l 1
 1240 0 l 1
 1058 136 l 1
 1086 160 1224 284 1254 324 c 1
 1342 470 l 1
EndSplineSet
EndChar

StartChar: D
Encoding: 68 68 15
GlifName: D_
Width: 1639
Flags: HMW
LayerCount: 2
Fore
SplineSet
440 1500 m 1
 870 1500 l 1
 530 0 l 1
 100 0 l 1
 440 1500 l 1
730 0 m 2
 -80 0 l 1
 -80 28 l 1
 650 28 l 2
 1018 28 1182 806 1182 1130 c 0
 1182 1314 1158 1472 970 1472 c 2
 240 1472 l 1
 240 1500 l 1
 1030 1500 l 2
 1356 1500 1640 1336 1640 950 c 0
 1640 464 1276 0 730 0 c 2
EndSplineSet
EndChar

StartChar: E
Encoding: 69 69 16
GlifName: E_
Width: 1317
Flags: HMW
LayerCount: 2
Fore
SplineSet
238 1500 m 1
 1468 1500 l 1
 1372 1090 l 1
 1344 1090 l 1
 1334 1304 1212 1472 978 1472 c 2
 238 1472 l 1
 238 1500 l 1
418 1500 m 1
 848 1500 l 1
 500 0 l 1
 70 0 l 1
 418 1500 l 1
716 762 m 2
 594 762 l 1
 594 790 l 1
 716 790 l 2
 830 790 964 912 1054 1046 c 1
 1082 1046 l 1
 954 496 l 1
 926 496 l 1
 896 630 830 762 716 762 c 2
1140 0 m 1
 -100 0 l 1
 -100 28 l 1
 630 28 l 2
 904 28 1098 196 1216 450 c 1
 1244 450 l 1
 1140 0 l 1
EndSplineSet
EndChar

StartChar: F
Encoding: 70 70 17
GlifName: F_
Width: 1257
Flags: HMW
LayerCount: 2
Fore
SplineSet
678 732 m 2
 608 732 l 1
 608 760 l 1
 678 760 l 2
 810 760 942 892 1028 1026 c 1
 1056 1026 l 1
 926 456 l 1
 898 456 l 1
 868 590 812 732 678 732 c 2
-100 28 m 1
 700 28 l 1
 700 0 l 1
 -100 0 l 1
 -100 28 l 1
418 1500 m 1
 848 1500 l 1
 500 0 l 1
 70 0 l 1
 418 1500 l 1
238 1500 m 1
 1428 1500 l 1
 1332 1090 l 1
 1304 1090 l 1
 1294 1304 1192 1472 958 1472 c 2
 238 1472 l 1
 238 1500 l 1
EndSplineSet
EndChar

StartChar: G
Encoding: 71 71 18
GlifName: G_
Width: 1665
Flags: HMW
LayerCount: 2
Fore
SplineSet
1056 562 m 1
 1504 562 l 1
 1444 330 l 1
 1354 204 1036 -20 710 -20 c 0
 364 -20 100 144 100 510 c 0
 100 1096 584 1520 1070 1520 c 0
 1346 1520 1514 1316 1558 1030 c 1
 1530 1030 l 1
 1480 1304 1326 1472 1150 1472 c 0
 762 1472 540 794 540 390 c 0
 540 186 578 20 726 20 c 0
 834 20 904 126 974 250 c 1
 1056 562 l 1
840 584 m 1
 1580 584 l 1
 1580 556 l 1
 840 556 l 1
 840 584 l 1
1646 1500 m 1
 1666 1500 l 1
 1558 1030 l 1
 1532 1030 l 1
 1512 1158 l 1
 1506 1188 1412 1356 1384 1382 c 1
 1646 1500 l 1
EndSplineSet
EndChar

StartChar: H
Encoding: 72 72 19
GlifName: H_
Width: 1669
Flags: HMW
LayerCount: 2
Fore
SplineSet
770 28 m 1
 1530 28 l 1
 1530 0 l 1
 770 0 l 1
 770 28 l 1
1100 1500 m 1
 1860 1500 l 1
 1860 1472 l 1
 1100 1472 l 1
 1100 1500 l 1
1260 1500 m 1
 1690 1500 l 1
 1350 0 l 1
 920 0 l 1
 1260 1500 l 1
-90 28 m 1
 670 28 l 1
 670 0 l 1
 -90 0 l 1
 -90 28 l 1
240 1500 m 1
 1000 1500 l 1
 1000 1472 l 1
 240 1472 l 1
 240 1500 l 1
420 1500 m 1
 850 1500 l 1
 510 0 l 1
 80 0 l 1
 420 1500 l 1
426 754 m 1
 1146 754 l 1
 1146 726 l 1
 426 726 l 1
 426 754 l 1
EndSplineSet
EndChar

StartChar: I
Encoding: 73 73 20
GlifName: I_
Width: 929
Flags: HMW
LayerCount: 2
Fore
SplineSet
-90 28 m 1
 790 28 l 1
 790 0 l 1
 -90 0 l 1
 -90 28 l 1
240 1500 m 1
 1120 1500 l 1
 1120 1472 l 1
 240 1472 l 1
 240 1500 l 1
470 1500 m 1
 900 1500 l 1
 560 0 l 1
 130 0 l 1
 470 1500 l 1
EndSplineSet
EndChar

StartChar: J
Encoding: 74 74 21
GlifName: J_
Width: 1251
Flags: HMW
LayerCount: 2
Fore
SplineSet
542 1500 m 1
 1442 1500 l 1
 1442 1472 l 1
 542 1472 l 1
 542 1500 l 1
34 92 m 1
 62 32 160 -28 282 -28 c 0
 404 -28 494 100 558 380 c 2
 812 1500 l 1
 1242 1500 l 1
 980 338 l 1
 800 98 624 -60 342 -60 c 0
 88 -60 -70 70 -70 250 c 0
 -70 374 24 500 184 500 c 0
 314 500 416 404 416 262 c 0
 416 122 298 26 170 26 c 0
 122 26 58 54 34 92 c 1
EndSplineSet
Substitution2: "'ss02' Style Set 2 lookup 4-1" J.alt
EndChar

StartChar: K
Encoding: 75 75 22
GlifName: K_
Width: 1693
Flags: HMW
LayerCount: 2
Fore
SplineSet
-90 28 m 1
 670 28 l 1
 670 0 l 1
 -90 0 l 1
 -90 28 l 1
240 1500 m 1
 1040 1500 l 1
 1040 1472 l 1
 240 1472 l 1
 240 1500 l 1
420 1500 m 1
 850 1500 l 1
 510 0 l 1
 80 0 l 1
 420 1500 l 1
362 434 m 1
 308 434 l 1
 1586 1496 l 1
 1632 1496 l 1
 362 434 l 1
764 28 m 1
 1576 28 l 1
 1576 0 l 1
 764 0 l 1
 764 28 l 1
1814 1472 m 1
 1334 1472 l 1
 1334 1500 l 1
 1814 1500 l 1
 1814 1472 l 1
1420 0 m 1
 942 0 l 1
 686 742 l 1
 1050 1034 l 1
 1420 0 l 1
EndSplineSet
EndChar

StartChar: L
Encoding: 76 76 23
GlifName: L_
Width: 1303
Flags: HMW
LayerCount: 2
Fore
SplineSet
418 1500 m 1
 848 1500 l 1
 500 0 l 1
 70 0 l 1
 418 1500 l 1
238 1500 m 1
 1028 1500 l 1
 1028 1472 l 1
 238 1472 l 1
 238 1500 l 1
1140 0 m 1
 -100 0 l 1
 -100 28 l 1
 590 28 l 2
 904 28 1098 196 1216 450 c 1
 1244 450 l 1
 1140 0 l 1
EndSplineSet
EndChar

StartChar: M
Encoding: 77 77 24
GlifName: M_
Width: 1899
Flags: HMW
LayerCount: 2
Fore
SplineSet
1030 28 m 1
 1760 28 l 1
 1760 0 l 1
 1030 0 l 1
 1030 28 l 1
1914 1472 m 1
 1600 0 l 1
 1170 0 l 1
 1490 1500 l 1
 2040 1500 l 1
 2040 1472 l 1
 1914 1472 l 1
976 596 m 1
 1474 1500 l 1
 1508 1500 l 1
 668 -20 l 1
 632 -20 l 1
 396 1500 l 1
 828 1500 l 1
 976 596 l 1
386 1472 m 1
 240 1472 l 1
 240 1500 l 1
 422 1500 l 1
 100 0 l 1
 70 0 l 1
 386 1472 l 1
-60 28 m 1
 264 28 l 1
 264 0 l 1
 -60 0 l 1
 -60 28 l 1
EndSplineSet
EndChar

StartChar: N
Encoding: 78 78 25
GlifName: N_
Width: 1539
Flags: HMW
LayerCount: 2
Fore
SplineSet
1496 1500 m 1
 1526 1500 l 1
 1180 -20 l 1
 1124 -20 l 1
 440 1500 l 1
 950 1500 l 1
 1318 718 l 1
 1496 1500 l 1
1256 1500 m 1
 1730 1500 l 1
 1730 1472 l 1
 1256 1472 l 1
 1256 1500 l 1
-80 28 m 1
 382 28 l 1
 382 0 l 1
 -80 0 l 1
 -80 28 l 1
442 1472 m 1
 240 1472 l 1
 240 1500 l 1
 476 1500 l 1
 140 0 l 1
 110 0 l 1
 442 1472 l 1
EndSplineSet
EndChar

StartChar: O
Encoding: 79 79 26
GlifName: O_
Width: 1579
Flags: HMW
LayerCount: 2
Fore
SplineSet
670 -20 m 0
 304 -20 100 184 100 510 c 0
 100 1136 584 1520 1010 1520 c 0
 1356 1520 1580 1316 1580 990 c 0
 1580 364 1116 -20 670 -20 c 0
1010 1496 m 0
 762 1496 520 734 520 270 c 0
 520 58 562 4 670 4 c 0
 938 4 1160 766 1160 1230 c 0
 1160 1402 1118 1496 1010 1496 c 0
EndSplineSet
EndChar

StartChar: P
Encoding: 80 80 27
GlifName: P_
Width: 1469
Flags: HMW
LayerCount: 2
Fore
SplineSet
420 1500 m 1
 850 1500 l 1
 500 0 l 1
 70 0 l 1
 420 1500 l 1
-90 28 m 1
 700 28 l 1
 700 0 l 1
 -90 0 l 1
 -90 28 l 1
850 666 m 2
 630 666 l 1
 630 694 l 1
 750 694 l 2
 982 694 1074 1042 1074 1260 c 0
 1074 1378 1042 1472 950 1472 c 2
 240 1472 l 1
 240 1500 l 1
 1050 1500 l 2
 1312 1500 1530 1420 1530 1180 c 0
 1530 880 1252 666 850 666 c 2
EndSplineSet
EndChar

StartChar: Q
Encoding: 81 81 28
GlifName: Q_
Width: 1519
Flags: HMW
LayerCount: 2
Fore
SplineSet
1060 -472 m 1
 1060 -500 l 1
 554 -500 340 -326 440 20 c 1
 592 -16 748 -14 910 20 c 1
 810 -344 898 -472 1060 -472 c 1
1010 1496 m 0
 762 1496 520 734 520 270 c 0
 520 66 562 4 670 4 c 0
 938 4 1160 766 1160 1230 c 0
 1160 1394 1118 1496 1010 1496 c 0
670 -20 m 0
 304 -20 100 184 100 510 c 0
 100 1136 584 1520 1010 1520 c 0
 1356 1520 1580 1316 1580 990 c 0
 1580 364 1116 -20 670 -20 c 0
EndSplineSet
EndChar

StartChar: R
Encoding: 82 82 29
GlifName: R_
Width: 1639
Flags: HMW
LayerCount: 2
Fore
SplineSet
1470 24 m 1
 1398 -4 1302 -20 1190 -20 c 0
 544 -20 1242 756 750 756 c 2
 660 756 l 1
 660 770 l 1
 890 770 l 2
 1676 770 1162 26 1368 26 c 0
 1402 26 1430 38 1462 50 c 1
 1470 24 l 1
460 1500 m 1
 890 1500 l 1
 540 0 l 1
 110 0 l 1
 460 1500 l 1
-70 28 m 1
 760 28 l 1
 760 0 l 1
 -70 0 l 1
 -70 28 l 1
870 766 m 2
 660 766 l 1
 660 784 l 1
 770 784 l 2
 1062 784 1130 1122 1130 1280 c 0
 1130 1378 1090 1472 930 1472 c 2
 260 1472 l 1
 260 1500 l 1
 1070 1500 l 2
 1332 1500 1560 1420 1560 1200 c 0
 1560 920 1272 766 870 766 c 2
EndSplineSet
Substitution2: "'ss01' Style Set 1 lookup 2-1" R.alt
EndChar

StartChar: S
Encoding: 83 83 30
GlifName: S_
Width: 1261
Flags: HMW
LayerCount: 2
Fore
SplineSet
1162 1172 m 1
 1148 1216 1068 1372 1034 1410 c 1
 1312 1520 l 1
 1332 1520 l 1
 1218 1030 l 1
 1190 1030 l 1
 1162 1172 l 1
1218 1030 m 1
 1190 1030 l 1
 1130 1264 1016 1486 800 1486 c 0
 668 1486 546 1404 546 1278 c 0
 546 1000 1186 1040 1186 560 c 0
 1186 280 918 -30 556 -30 c 0
 244 -30 126 270 66 510 c 1
 94 510 l 1
 152 308 264 4 536 4 c 0
 728 4 836 116 836 262 c 0
 836 620 206 490 206 990 c 0
 206 1330 518 1520 780 1520 c 0
 1036 1520 1158 1292 1218 1030 c 1
-30 -20 m 1
 -50 -20 l 1
 66 510 l 1
 94 510 l 1
 134 328 l 1
 148 280 232 130 260 98 c 1
 -30 -20 l 1
EndSplineSet
EndChar

StartChar: T
Encoding: 84 84 31
GlifName: T_
Width: 1443
Flags: HMW
LayerCount: 2
Fore
SplineSet
186 28 m 1
 1056 28 l 1
 1056 0 l 1
 186 0 l 1
 186 28 l 1
734 1500 m 1
 1164 1500 l 1
 816 0 l 1
 386 0 l 1
 734 1500 l 1
1214 1472 m 2
 664 1472 l 2
 470 1472 286 1242 168 990 c 1
 140 990 l 1
 254 1500 l 1
 1644 1500 l 1
 1530 990 l 1
 1502 990 l 1
 1500 1244 1408 1472 1214 1472 c 2
EndSplineSet
EndChar

StartChar: U
Encoding: 85 85 32
GlifName: U_
Width: 1473
Flags: HMW
LayerCount: 2
Fore
SplineSet
1274 1500 m 1
 1664 1500 l 1
 1664 1472 l 1
 1274 1472 l 1
 1274 1500 l 1
234 1500 m 1
 1044 1500 l 1
 1044 1472 l 1
 234 1472 l 1
 234 1500 l 1
1470 1500 m 1
 1498 1500 l 1
 1258 460 l 2
 1186 146 980 -30 664 -30 c 0
 338 -30 108 132 184 460 c 2
 424 1500 l 1
 854 1500 l 1
 614 480 l 2
 556 230 554 28 782 28 c 0
 964 28 1162 166 1230 460 c 2
 1470 1500 l 1
EndSplineSet
EndChar

StartChar: V
Encoding: 86 86 33
GlifName: V_
Width: 1629
Flags: HMW
LayerCount: 2
Fore
SplineSet
1830 1472 m 1
 1390 1472 l 1
 1390 1500 l 1
 1830 1500 l 1
 1830 1472 l 1
1050 1472 m 1
 230 1472 l 1
 230 1500 l 1
 1050 1500 l 1
 1050 1472 l 1
942 310 m 1
 1632 1500 l 1
 1666 1500 l 1
 786 -20 l 1
 560 -20 l 1
 370 1500 l 1
 820 1500 l 1
 942 310 l 1
EndSplineSet
EndChar

StartChar: W
Encoding: 87 87 34
GlifName: W_
Width: 2455
Flags: HMW
LayerCount: 2
Fore
SplineSet
1072 404 m 1
 1406 954 l 1
 1438 954 l 1
 852 -20 l 1
 656 -20 l 1
 374 1500 l 1
 878 1500 l 1
 1072 404 l 1
1576 834 m 1
 1544 834 l 1
 1954 1500 l 1
 1986 1500 l 1
 1576 834 l 1
2656 1472 m 1
 2256 1472 l 1
 2256 1500 l 1
 2656 1500 l 1
 2656 1472 l 1
2180 1472 m 1
 230 1472 l 1
 230 1500 l 1
 2180 1500 l 1
 2180 1472 l 1
1778 402 m 1
 2458 1500 l 1
 2490 1500 l 1
 1554 -20 l 1
 1418 -20 l 1
 1136 1500 l 1
 1576 1500 l 1
 1778 402 l 1
EndSplineSet
EndChar

StartChar: X
Encoding: 88 88 35
GlifName: X_
Width: 1659
Flags: HMW
LayerCount: 2
Fore
SplineSet
922 754 m 1
 876 754 l 1
 1560 1496 l 1
 1598 1496 l 1
 922 754 l 1
112 0 m 1
 70 0 l 1
 874 834 l 1
 914 834 l 1
 112 0 l 1
750 28 m 1
 1550 28 l 1
 1550 0 l 1
 750 0 l 1
 750 28 l 1
-110 28 m 1
 370 28 l 1
 370 0 l 1
 -110 0 l 1
 -110 28 l 1
1100 1472 m 1
 300 1472 l 1
 300 1500 l 1
 1100 1500 l 1
 1100 1472 l 1
1780 1472 m 1
 1340 1472 l 1
 1340 1500 l 1
 1780 1500 l 1
 1780 1472 l 1
1412 0 m 1
 942 0 l 1
 440 1500 l 1
 902 1500 l 1
 1412 0 l 1
EndSplineSet
EndChar

StartChar: Y
Encoding: 89 89 36
GlifName: Y_
Width: 1559
Flags: HMW
LayerCount: 2
Fore
SplineSet
1760 1472 m 1
 1340 1472 l 1
 1340 1500 l 1
 1760 1500 l 1
 1760 1472 l 1
1056 1472 m 1
 230 1472 l 1
 230 1500 l 1
 1056 1500 l 1
 1056 1472 l 1
280 28 m 1
 1090 28 l 1
 1090 0 l 1
 280 0 l 1
 280 28 l 1
1066 822 m 1
 1568 1496 l 1
 1608 1496 l 1
 1058 764 l 1
 890 0 l 1
 460 0 l 1
 630 754 l 1
 370 1500 l 1
 856 1500 l 1
 1066 822 l 1
EndSplineSet
EndChar

StartChar: Z
Encoding: 90 90 37
GlifName: Z_
Width: 1327
Flags: HMW
LayerCount: 2
Fore
SplineSet
928 1472 m 1
 738 1472 l 2
 464 1472 332 1314 202 1100 c 1
 174 1100 l 1
 268 1500 l 1
 1458 1500 l 1
 1458 1472 l 1
 420 28 l 1
 670 28 l 2
 944 28 1056 188 1214 440 c 1
 1242 440 l 1
 1140 0 l 1
 -110 0 l 1
 -110 28 l 1
 928 1472 l 1
EndSplineSet
EndChar

StartChar: a
Encoding: 97 97 38
GlifName: a
Width: 1371
VWidth: 2309
Flags: HMW
LayerCount: 2
Fore
SplineSet
758 628 m 0
 758 734 732 816 682 816 c 0
 594 816 444 500 444 232 c 0
 444 156 472 104 514 104 c 0
 626 104 758 420 758 628 c 0
780 628 m 0
 780 412 636 -20 354 -20 c 0
 216 -20 36 60 36 320 c 0
 36 720 350 938 568 938 c 0
 720 938 780 812 780 628 c 0
1326 326 m 1
 1250 126 1092 -20 870 -20 c 0
 716 -20 674 44 674 146 c 0
 674 156 676 184 680 198 c 2
 718 362 l 1
 762 510 l 1
 774 634 l 1
 856 920 l 1
 1222 920 l 1
 1002 138 l 2
 1000 126 998 112 998 102 c 0
 998 80 1008 62 1034 62 c 0
 1132 62 1252 198 1300 334 c 1
 1326 326 l 1
EndSplineSet
EndChar

StartChar: b
Encoding: 98 98 39
GlifName: b
Width: 1327
VWidth: 2309
Flags: HMW
LayerCount: 2
Fore
SplineSet
418 1472 m 1
 268 1472 l 1
 268 1500 l 1
 804 1500 l 1
 500 180 l 1
 500 92 522 16 564 16 c 0
 672 16 854 410 854 678 c 0
 854 746 826 814 784 814 c 0
 722 814 618 688 564 460 c 1
 550 460 l 1
 626 804 786 938 948 938 c 0
 1082 938 1262 876 1262 620 c 0
 1262 200 916 -20 558 -20 c 0
 436 -20 276 34 136 240 c 1
 418 1472 l 1
EndSplineSet
EndChar

StartChar: c
Encoding: 99 99 40
GlifName: c
Width: 1059
VWidth: 2309
Flags: HMW
LayerCount: 2
Fore
SplineSet
938 812 m 1
 894 870 824 906 752 906 c 0
 554 906 444 508 444 260 c 0
 444 92 486 54 554 54 c 0
 632 54 738 112 868 286 c 1
 894 286 l 1
 762 92 616 -20 394 -20 c 0
 212 -20 36 60 36 300 c 0
 36 680 350 940 692 940 c 0
 876 940 1034 836 1034 672 c 0
 1034 550 950 458 830 458 c 0
 720 458 616 530 616 650 c 0
 616 780 736 852 814 852 c 0
 878 852 922 832 938 812 c 1
EndSplineSet
EndChar

StartChar: d
Encoding: 100 100 41
GlifName: d
Width: 1411
VWidth: 2309
Flags: HMW
LayerCount: 2
Fore
SplineSet
1366 326 m 1
 1290 126 1132 -20 910 -20 c 0
 756 -20 676 26 676 166 c 0
 676 176 680 198 682 210 c 2
 718 364 l 1
 762 516 l 1
 774 630 l 1
 972 1472 l 1
 790 1472 l 1
 790 1500 l 1
 1356 1500 l 1
 1042 138 l 2
 1040 126 1038 112 1038 102 c 0
 1038 80 1046 60 1074 60 c 0
 1168 60 1292 196 1340 334 c 1
 1366 326 l 1
758 628 m 0
 758 734 732 816 682 816 c 0
 594 816 444 500 444 232 c 0
 444 156 472 104 514 104 c 0
 626 104 758 420 758 628 c 0
780 628 m 0
 780 412 636 -20 354 -20 c 0
 216 -20 36 60 36 320 c 0
 36 720 350 940 556 940 c 0
 708 940 780 812 780 628 c 0
EndSplineSet
EndChar

StartChar: e
Encoding: 101 101 42
GlifName: e
Width: 1119
VWidth: 2309
Flags: HMW
LayerCount: 2
Fore
SplineSet
444 182 m 0
 444 94 496 38 574 38 c 0
 682 38 850 140 948 286 c 1
 974 286 l 1
 876 132 676 -20 454 -20 c 0
 232 -20 36 60 36 300 c 0
 36 666 376 940 698 940 c 0
 902 940 1084 868 1084 724 c 0
 1084 464 648 398 426 398 c 1
 426 418 l 1
 504 418 752 516 752 792 c 0
 752 846 746 916 706 916 c 0
 608 916 444 470 444 182 c 0
EndSplineSet
EndChar

StartChar: f
Encoding: 102 102 43
GlifName: f
Width: 1000
VWidth: 2309
Flags: HMW
LayerCount: 2
Fore
SplineSet
178 920 m 1
 998 920 l 1
 998 892 l 1
 178 892 l 1
 178 920 l 1
1202 1402 m 1
 1172 1444 1090 1488 1006 1488 c 0
 866 1488 780 1324 738 1080 c 2
 546 -24 l 2
 478 -412 210 -520 -50 -520 c 0
 -272 -520 -404 -386 -404 -262 c 0
 -404 -140 -332 -58 -212 -58 c 0
 -102 -58 2 -126 2 -246 c 0
 2 -366 -88 -444 -194 -444 c 0
 -238 -444 -278 -424 -290 -402 c 1
 -264 -444 -180 -488 -96 -488 c 0
 44 -488 130 -324 172 -80 c 2
 364 1024 l 2
 432 1412 700 1520 960 1520 c 0
 1182 1520 1314 1386 1314 1262 c 0
 1314 1140 1242 1058 1122 1058 c 0
 1012 1058 908 1126 908 1246 c 0
 908 1366 998 1444 1104 1444 c 0
 1148 1444 1190 1424 1202 1402 c 1
EndSplineSet
EndChar

StartChar: g
Encoding: 103 103 44
GlifName: g
Width: 1431
VWidth: 2309
Flags: HMW
LayerCount: 2
Fore
SplineSet
320 -80 m 1
 270 -102 212 -168 212 -272 c 0
 212 -420 320 -492 512 -492 c 0
 670 -492 924 -446 924 -254 c 0
 924 -146 850 -118 740 -118 c 0
 698 -118 448 -118 404 -118 c 0
 224 -118 78 -26 78 98 c 0
 78 292 352 344 562 344 c 1
 558 330 l 1
 492 330 316 308 316 246 c 0
 316 212 386 198 496 198 c 0
 566 198 722 200 778 200 c 0
 988 200 1086 88 1086 -84 c 0
 1086 -406 752 -520 492 -520 c 0
 246 -520 -84 -466 -84 -284 c 0
 -84 -102 210 -80 300 -80 c 2
 320 -80 l 1
1466 744 m 0
 1466 614 1384 568 1314 568 c 0
 1244 568 1164 612 1164 718 c 0
 1164 794 1222 862 1308 862 c 0
 1356 862 1412 832 1420 808 c 1
 1404 872 1342 902 1278 902 c 0
 1178 902 1084 854 982 678 c 1
 958 694 l 1
 1058 876 1178 930 1278 930 c 0
 1412 930 1466 834 1466 744 c 0
580 348 m 0
 638 348 738 622 738 810 c 0
 738 858 738 912 700 912 c 0
 642 912 542 638 542 450 c 0
 542 402 542 348 580 348 c 0
570 320 m 0
 348 320 174 390 174 570 c 0
 174 790 428 940 710 940 c 0
 932 940 1106 870 1106 690 c 0
 1106 470 852 320 570 320 c 0
EndSplineSet
EndChar

StartChar: h
Encoding: 104 104 45
GlifName: h
Width: 1351
VWidth: 2309
Flags: HMW
LayerCount: 2
Fore
SplineSet
760 610 m 2
 812 762 834 878 782 878 c 0
 696 878 574 652 498 346 c 1
 478 346 l 1
 572 654 636 940 882 940 c 0
 1096 940 1222 808 1150 594 c 2
 986 110 l 2
 982 98 980 84 980 74 c 0
 980 52 992 38 1018 38 c 0
 1120 38 1226 182 1280 334 c 1
 1306 326 l 1
 1230 126 1112 -20 890 -20 c 0
 716 -20 624 42 624 168 c 0
 624 198 628 222 634 244 c 2
 760 610 l 2
390 1472 m 1
 256 1472 l 1
 256 1500 l 1
 776 1500 l 1
 416 0 l 1
 36 0 l 1
 390 1472 l 1
EndSplineSet
EndChar

StartChar: i
Encoding: 105 105 46
GlifName: i
Width: 839
VWidth: 2309
Flags: HMW
LayerCount: 2
Fore
SplineSet
286 1300 m 0
 286 1426 380 1520 506 1520 c 0
 632 1520 726 1426 726 1300 c 0
 726 1174 632 1080 506 1080 c 0
 380 1080 286 1174 286 1300 c 0
794 326 m 1
 718 126 560 -20 338 -20 c 0
 184 -20 106 26 106 166 c 0
 106 176 106 198 110 210 c 2
 284 892 l 1
 126 892 l 1
 126 920 l 1
 670 920 l 1
 472 138 l 2
 470 126 468 112 468 102 c 0
 468 80 478 60 504 60 c 0
 592 60 714 184 768 334 c 1
 794 326 l 1
EndSplineSet
EndChar

StartChar: j
Encoding: 106 106 47
GlifName: j
Width: 685
VWidth: 2309
Flags: HMW
LayerCount: 2
Fore
SplineSet
290 1300 m 0
 290 1426 384 1520 510 1520 c 0
 636 1520 730 1426 730 1300 c 0
 730 1174 636 1080 510 1080 c 0
 384 1080 290 1174 290 1300 c 0
-332 -408 m 1
 -302 -448 -220 -486 -128 -486 c 0
 72 -486 40 -200 96 40 c 2
 296 892 l 1
 112 892 l 1
 112 920 l 1
 682 920 l 1
 486 -24 l 2
 434 -274 142 -520 -118 -520 c 0
 -300 -520 -464 -406 -464 -272 c 0
 -464 -150 -360 -58 -240 -58 c 0
 -130 -58 -38 -140 -38 -234 c 0
 -38 -348 -134 -440 -250 -440 c 0
 -284 -440 -312 -426 -332 -408 c 1
EndSplineSet
EndChar

StartChar: k
Encoding: 107 107 48
GlifName: k
Width: 1365
VWidth: 2309
Flags: HMW
LayerCount: 2
Fore
SplineSet
1310 326 m 5
 1234 126 1096 -20 894 -20 c 4
 740 -20 628 26 628 166 c 4
 628 176 630 198 632 210 c 6
 646 280 l 6
 670 396 730 530 674 530 c 4
 624 530 582 456 564 380 c 5
 544 380 l 5
 592 544 646 588 788 588 c 4
 926 588 1070 502 1010 242 c 6
 984 98 l 6
 984 94 982 84 982 80 c 4
 982 58 996 48 1022 48 c 4
 1116 48 1234 192 1284 334 c 5
 1310 326 l 5
604 497 m 5
 618 518 l 5
 622 512 630 510 650 510 c 4
 722 510 740 596 792 724 c 4
 848 860 946 940 1066 940 c 4
 1196 940 1330 842 1330 698 c 4
 1330 588 1248 498 1138 498 c 4
 1028 498 958 592 958 678 c 4
 958 774 1042 852 1138 852 c 4
 1194 852 1248 824 1262 796 c 5
 1240 860 1156 912 1064 912 c 4
 970 912 874 850 820 714 c 4
 766 578 748 484 650 484 c 4
 626 484 609 486 604 497 c 5
438 1472 m 5
 264 1472 l 5
 264 1500 l 5
 824 1500 l 5
 476 0 l 5
 96 0 l 5
 438 1472 l 5
EndSplineSet
EndChar

StartChar: l
Encoding: 108 108 49
GlifName: l
Width: 819
VWidth: 2309
Flags: HMW
LayerCount: 2
Fore
SplineSet
774 326 m 1
 698 126 540 -20 318 -20 c 0
 164 -20 86 26 86 166 c 0
 86 176 88 198 90 210 c 2
 380 1472 l 1
 198 1472 l 1
 198 1500 l 1
 764 1500 l 1
 452 138 l 2
 450 126 448 112 448 102 c 0
 448 80 458 60 484 60 c 0
 570 60 694 182 748 334 c 1
 774 326 l 1
EndSplineSet
EndChar

StartChar: m
Encoding: 109 109 50
GlifName: m
Width: 1933
VWidth: 2309
Flags: HMW
LayerCount: 2
Fore
SplineSet
1342 610 m 2
 1394 762 1408 872 1356 872 c 0
 1282 872 1158 672 1080 346 c 1
 1060 346 l 1
 1136 638 1228 940 1464 940 c 0
 1678 940 1804 808 1732 594 c 2
 1568 110 l 2
 1564 98 1562 84 1562 74 c 0
 1562 52 1574 36 1600 36 c 0
 1700 36 1806 178 1862 334 c 1
 1888 326 l 1
 1812 126 1694 -20 1472 -20 c 0
 1298 -20 1206 42 1206 168 c 0
 1206 198 1210 222 1216 244 c 2
 1342 610 l 2
996 0 m 17
 616 0 l 1
 766 616 l 2
 804 774 836 872 784 872 c 0
 702 872 580 650 508 346 c 1
 488 346 l 1
 576 650 648 940 894 940 c 0
 1108 940 1200 834 1152 638 c 2
 996 0 l 17
260 892 m 1
 126 892 l 1
 126 920 l 1
 646 920 l 1
 426 0 l 1
 46 0 l 1
 260 892 l 1
EndSplineSet
EndChar

StartChar: n
Encoding: 110 110 51
GlifName: n
Width: 1361
VWidth: 2309
Flags: HMW
LayerCount: 2
Fore
SplineSet
256 892 m 1
 124 892 l 1
 124 920 l 1
 644 920 l 1
 422 0 l 1
 42 0 l 1
 256 892 l 1
766 610 m 2
 818 762 840 878 788 878 c 0
 702 878 580 652 504 346 c 1
 484 346 l 1
 578 654 642 940 888 940 c 0
 1102 940 1228 808 1156 594 c 2
 992 110 l 2
 988 98 986 84 986 74 c 0
 986 52 998 38 1024 38 c 0
 1126 38 1232 182 1286 334 c 1
 1312 326 l 1
 1236 126 1118 -20 896 -20 c 0
 722 -20 630 42 630 168 c 0
 630 198 634 222 640 244 c 2
 766 610 l 2
EndSplineSet
EndChar

StartChar: o
Encoding: 111 111 52
GlifName: o
Width: 1175
VWidth: 2309
Flags: HMW
LayerCount: 2
Fore
SplineSet
474 -20 m 0
 272 -20 36 100 36 340 c 0
 36 720 350 940 672 940 c 0
 874 940 1110 820 1110 580 c 0
 1110 200 796 -20 474 -20 c 0
474 8 m 0
 612 8 742 532 742 780 c 0
 742 876 720 912 672 912 c 0
 534 912 404 388 404 140 c 0
 404 44 426 8 474 8 c 0
EndSplineSet
EndChar

StartChar: p
Encoding: 112 112 53
GlifName: p
Width: 1311
VWidth: 2309
Flags: HMW
LayerCount: 2
Fore
SplineSet
534 290 m 0
 534 184 560 102 610 102 c 0
 698 102 848 418 848 686 c 0
 848 762 820 814 778 814 c 0
 666 814 534 498 534 290 c 0
512 290 m 0
 512 506 656 938 938 938 c 0
 1076 938 1256 858 1256 598 c 0
 1256 198 944 -20 738 -20 c 0
 586 -20 512 106 512 290 c 0
-184 -472 m 1
 466 -472 l 1
 466 -500 l 1
 -184 -500 l 1
 -184 -472 l 1
268 892 m 1
 130 892 l 1
 130 920 l 1
 654 920 l 1
 572 570 l 1
 532 436 l 1
 520 332 l 1
 326 -500 l 1
 -54 -500 l 1
 268 892 l 1
EndSplineSet
EndChar

StartChar: q
Encoding: 113 113 54
GlifName: q
Width: 1261
VWidth: 2309
Flags: HMW
LayerCount: 2
Fore
SplineSet
994 -472 m 1
 994 -500 l 1
 384 -500 l 1
 384 -472 l 1
 994 -472 l 1
854 -500 m 17
 514 -500 l 1
 712 342 l 1
 718 360 756 488 762 512 c 1
 774 630 l 1
 838 900 l 1
 1186 940 l 1
 854 -500 l 17
758 628 m 0
 758 734 732 816 682 816 c 0
 594 816 444 500 444 232 c 0
 444 156 472 104 514 104 c 0
 626 104 758 420 758 628 c 0
780 628 m 0
 780 412 636 -20 354 -20 c 0
 216 -20 36 60 36 320 c 0
 36 720 350 940 556 940 c 0
 708 940 780 812 780 628 c 0
EndSplineSet
EndChar

StartChar: r
Encoding: 114 114 55
GlifName: r
Width: 1125
VWidth: 2309
Flags: HMW
LayerCount: 2
Fore
SplineSet
1170 678 m 0
 1170 560 1090 456 954 456 c 0
 828 456 736 542 736 666 c 0
 736 776 824 878 962 878 c 0
 1004 878 1030 856 1044 836 c 1
 1016 886 946 908 894 908 c 0
 682 908 562 542 514 346 c 1
 494 346 l 1
 542 568 642 940 906 940 c 0
 1038 940 1170 836 1170 678 c 0
270 892 m 1
 126 892 l 1
 126 920 l 1
 646 920 l 1
 436 0 l 1
 56 0 l 1
 270 892 l 1
EndSplineSet
EndChar

StartChar: s
Encoding: 115 115 56
GlifName: s
Width: 1035
VWidth: 2309
Flags: HMW
LayerCount: 2
Fore
SplineSet
842 826 m 1
 814 864 730 910 574 910 c 0
 436 910 400 852 400 800 c 0
 400 632 870 590 870 324 c 0
 870 136 670 -24 416 -24 c 0
 98 -24 -4 120 -4 230 c 0
 -4 332 76 394 156 394 c 0
 226 394 314 342 314 242 c 0
 314 152 238 92 160 92 c 0
 110 92 76 116 68 132 c 1
 108 72 190 4 416 4 c 0
 556 4 644 58 644 128 c 0
 644 270 148 322 148 614 c 0
 148 812 368 938 562 938 c 0
 824 938 940 834 940 720 c 0
 940 638 880 576 800 576 c 0
 730 576 646 628 646 718 c 0
 646 798 700 858 774 858 c 0
 808 858 826 848 842 826 c 1
EndSplineSet
EndChar

StartChar: t
Encoding: 116 116 57
GlifName: t
Width: 841
VWidth: 2309
Flags: HMW
LayerCount: 2
Fore
SplineSet
116 920 m 1
 856 920 l 1
 856 892 l 1
 116 892 l 1
 116 920 l 1
792 326 m 1
 716 126 558 -20 336 -20 c 0
 182 -20 98 26 98 166 c 0
 98 176 100 198 104 210 c 2
 334 1120 l 1
 712 1120 l 1
 466 138 l 2
 464 126 462 112 462 102 c 0
 462 80 472 64 498 64 c 0
 600 64 718 202 766 334 c 1
 792 326 l 1
EndSplineSet
EndChar

StartChar: u
Encoding: 117 117 58
GlifName: u
Width: 1419
VWidth: 2309
Flags: HMW
LayerCount: 2
Fore
SplineSet
650 920 m 1
 506 304 l 2
 470 146 444 52 500 52 c 0
 574 52 696 268 772 574 c 1
 794 574 l 1
 698 258 626 -20 384 -20 c 0
 190 -20 88 118 124 282 c 2
 262 892 l 1
 126 892 l 1
 126 920 l 1
 650 920 l 1
1374 326 m 1
 1298 126 1140 -20 918 -20 c 0
 764 -20 682 26 682 166 c 0
 682 176 684 198 686 210 c 2
 848 920 l 1
 1230 920 l 1
 1048 138 l 2
 1046 126 1044 112 1044 102 c 0
 1044 80 1054 64 1080 64 c 0
 1178 64 1298 194 1348 334 c 1
 1374 326 l 1
EndSplineSet
EndChar

StartChar: v
Encoding: 118 118 59
GlifName: v
Width: 1363
VWidth: 2309
Flags: HMW
LayerCount: 2
Fore
SplineSet
646 284 m 2
 620 126 596 34 708 34 c 0
 914 34 1302 338 1302 688 c 0
 1302 692 1302 694 1302 700 c 1
 1296 614 1180 510 1066 510 c 0
 938 510 850 614 850 724 c 0
 850 844 948 938 1082 938 c 0
 1228 938 1328 830 1328 688 c 0
 1328 324 936 -20 610 -20 c 0
 356 -20 232 120 270 322 c 2
 356 782 l 2
 358 794 360 808 360 818 c 0
 360 840 346 856 318 856 c 0
 198 856 112 718 54 586 c 1
 26 594 l 1
 122 794 220 940 482 940 c 0
 656 940 714 880 714 774 c 0
 714 744 714 730 708 696 c 2
 646 284 l 2
EndSplineSet
Substitution2: "'ss04' Style Set 4 lookup 5-1" v.alt
EndChar

StartChar: w
Encoding: 119 119 60
GlifName: w
Width: 2009
VWidth: 2309
Flags: HMW
LayerCount: 2
Fore
SplineSet
572 322 m 2
 520 168 526 44 618 44 c 0
 752 44 862 272 934 574 c 1
 956 574 l 1
 880 284 814 -20 490 -20 c 0
 256 -20 120 86 186 282 c 2
 356 782 l 2
 360 794 362 808 362 818 c 0
 362 840 348 856 320 856 c 0
 204 856 120 732 54 586 c 1
 26 594 l 1
 122 794 220 940 482 940 c 0
 636 940 718 890 718 764 c 0
 718 734 712 710 708 696 c 2
 572 322 l 2
1016 920 m 1
 1396 920 l 1
 1268 378 l 2
 1228 210 1236 36 1384 36 c 0
 1678 36 1946 470 1946 688 c 0
 1946 690 1946 694 1946 700 c 1
 1936 602 1844 510 1710 510 c 0
 1570 510 1494 614 1494 724 c 0
 1494 844 1602 938 1726 938 c 0
 1832 938 1974 870 1974 688 c 0
 1974 468 1714 -20 1304 -20 c 0
 1106 -20 852 48 880 356 c 1
 1016 920 l 1
EndSplineSet
EndChar

StartChar: x
Encoding: 120 120 61
GlifName: x
Width: 1423
VWidth: 2309
Flags: HMW
LayerCount: 2
Fore
SplineSet
770 490 m 1
 890 686 998 940 1216 940 c 0
 1378 940 1458 812 1458 708 c 0
 1458 596 1378 508 1262 508 c 0
 1142 508 1072 612 1072 702 c 0
 1072 796 1152 892 1262 892 c 0
 1296 892 1326 870 1344 844 c 1
 1316 890 1264 914 1212 914 c 0
 1030 914 918 676 796 476 c 1
 770 490 l 1
684 432 m 1
 564 236 456 -20 238 -20 c 0
 76 -20 -4 108 -4 212 c 0
 -4 324 76 412 192 412 c 0
 312 412 382 308 382 218 c 0
 382 124 304 28 194 28 c 0
 154 28 124 56 110 84 c 1
 134 40 182 6 242 6 c 0
 426 6 542 256 658 446 c 1
 684 432 l 1
1316 218 m 1
 1252 58 1140 -20 956 -20 c 0
 762 -20 700 50 644 186 c 0
 576 352 484 678 432 822 c 0
 424 844 412 870 374 870 c 0
 312 870 246 790 206 686 c 1
 180 698 l 1
 242 858 342 944 546 944 c 0
 740 944 794 874 850 738 c 0
 920 564 1000 294 1070 100 c 0
 1078 78 1098 52 1128 52 c 0
 1182 52 1258 138 1292 230 c 1
 1316 218 l 1
EndSplineSet
EndChar

StartChar: y
Encoding: 121 121 62
GlifName: y
Width: 1413
VWidth: 2309
Flags: HMW
LayerCount: 2
Fore
SplineSet
722 -268 m 1
 534 48 384 658 330 802 c 0
 322 824 302 854 266 854 c 0
 214 854 138 796 98 682 c 1
 72 694 l 1
 138 874 294 940 458 940 c 0
 618 940 702 868 744 732 c 0
 800 552 868 234 1002 38 c 1
 972 -4 756 -234 722 -268 c 1
340 -520 m 0
 114 -520 26 -352 26 -242 c 0
 26 -116 114 -10 230 -10 c 0
 340 -10 422 -82 422 -198 c 0
 422 -304 348 -386 238 -386 c 0
 146 -386 84 -330 60 -262 c 1
 62 -334 130 -492 336 -492 c 0
 682 -492 1346 466 1346 710 c 0
 1346 714 1346 716 1346 722 c 1
 1332 630 1260 552 1148 552 c 0
 1020 552 946 656 946 746 c 0
 946 846 1018 940 1152 940 c 0
 1294 940 1378 834 1378 712 c 0
 1378 452 704 -520 340 -520 c 0
EndSplineSet
EndChar

StartChar: z
Encoding: 122 122 63
GlifName: z
Width: 1053
VWidth: 2309
Flags: HMW
LayerCount: 2
Fore
SplineSet
62 380 m 1
 194 940 l 1
 302 880 422 862 574 862 c 0
 710 862 886 886 970 940 c 1
 996 914 l 1
 782 774 528 510 360 510 c 0
 272 510 190 536 138 576 c 1
 90 380 l 1
 62 380 l 1
36 30 m 1
 -30 6 l 1
 940 900 l 1
 996 914 l 1
 36 30 l 1
1014 376 m 1
 984 306 934 252 844 252 c 0
 758 252 670 332 670 432 c 0
 670 542 764 614 854 614 c 0
 954 614 1044 532 1044 410 c 0
 1044 270 894 -20 610 -20 c 0
 448 -20 362 78 230 78 c 0
 134 78 58 44 -6 -20 c 1
 -30 6 l 1
 154 126 370 350 510 350 c 0
 666 350 648 204 830 204 c 0
 942 204 1004 268 1014 376 c 1
EndSplineSet
EndChar

StartChar: comma
Encoding: 44 44 65
GlifName: comma
Width: 669
Flags: HMW
LayerCount: 2
Fore
SplineSet
80 218 m 0
 80 344 198 456 334 456 c 0
 472 456 594 354 594 168 c 0
 594 -148 236 -312 -64 -312 c 1
 -64 -284 l 1
 194 -284 554 -146 564 164 c 1
 528 60 418 -20 310 -20 c 0
 176 -20 80 92 80 218 c 0
EndSplineSet
EndChar

StartChar: exclam
Encoding: 33 33 67
GlifName: exclam
Width: 877
Flags: HMW
LayerCount: 2
Fore
SplineSet
896 1318 m 0
 896 1062 602 936 512 616 c 1
 484 616 l 1
 544 916 400 946 400 1198 c 0
 400 1370 544 1516 682 1516 c 0
 812 1516 896 1420 896 1318 c 0
168 220 m 0
 168 352 276 460 408 460 c 0
 540 460 648 352 648 220 c 0
 648 88 540 -20 408 -20 c 0
 276 -20 168 88 168 220 c 0
EndSplineSet
EndChar

StartChar: quotesingle
Encoding: 39 39 70
GlifName: quotesingle
Width: 627
Flags: HMW
LayerCount: 2
Fore
SplineSet
712 1278 m 0
 674 1128 472 1036 412 836 c 1
 384 836 l 1
 436 1036 294 1122 272 1272 c 24
 270 1286 270 1306 270 1318 c 0
 270 1436 372 1520 510 1520 c 0
 628 1520 718 1436 718 1338 c 0
 718 1316 716 1292 712 1278 c 0
EndSplineSet
EndChar

StartChar: question
Encoding: 63 63 75
GlifName: question
Width: 1239
Flags: HMW
LayerCount: 2
Fore
SplineSet
614 714 m 1
 578 558 l 1
 550 558 l 1
 590 734 l 1
 824 796 908 1094 908 1300 c 0
 908 1408 870 1490 772 1490 c 0
 564 1490 408 1350 368 1258 c 1
 398 1288 454 1320 514 1320 c 0
 612 1320 708 1240 708 1130 c 0
 708 1010 604 918 494 918 c 0
 354 918 300 1020 300 1142 c 0
 300 1306 528 1520 792 1520 c 0
 1014 1520 1330 1440 1330 1200 c 0
 1330 842 924 730 614 714 c 1
EndSplineSet
Refer: 1 46 N 1 0 0 1 298 0 2
EndChar

StartChar: parenleft
Encoding: 40 40 76
GlifName: parenleft
Width: 769
Flags: HMW
LayerCount: 2
Fore
SplineSet
584 -318 m 1
 572 -340 l 1
 346 -240 170 24 170 370 c 0
 170 956 626 1440 1012 1600 c 1
 1024 1578 l 1
 716 1338 528 446 528 2 c 0
 528 -142 552 -258 584 -318 c 1
EndSplineSet
EndChar

StartChar: asterisk
Encoding: 42 42 78
GlifName: asterisk
Width: 1269
VWidth: 2309
Flags: HMW
LayerCount: 2
Fore
SplineSet
566 1304 m 0
 698 1208 604 1000 774 910 c 1
 758 888 l 1
 568 998 414 872 276 934 c 0
 158 988 154 1132 216 1234 c 0
 284 1342 450 1388 566 1304 c 0
262 866 m 0
 410 896 568 802 758 912 c 1
 772 888 l 1
 582 778 546 614 420 510 c 0
 304 414 170 444 108 542 c 0
 38 650 106 834 262 866 c 0
462 454 m 0
 498 608 724 680 754 900 c 1
 778 900 l 1
 738 640 898 584 898 434 c 0
 898 320 776 216 646 216 c 0
 536 216 424 286 462 454 c 0
964 496 m 0
 832 592 928 800 758 890 c 1
 772 910 l 1
 962 800 1116 928 1254 866 c 0
 1372 812 1376 668 1314 566 c 0
 1246 458 1080 412 964 496 c 0
1268 934 m 0
 1120 904 962 998 772 888 c 1
 758 910 l 1
 948 1020 984 1186 1110 1290 c 0
 1226 1386 1360 1356 1422 1258 c 0
 1492 1150 1424 966 1268 934 c 0
1068 1346 m 0
 1040 1192 808 1120 778 900 c 1
 752 900 l 1
 792 1160 632 1216 632 1366 c 0
 632 1480 754 1584 884 1584 c 0
 994 1584 1100 1516 1068 1346 c 0
EndSplineSet
EndChar

StartChar: at
Encoding: 64 64 79
GlifName: at
Width: 2019
VWidth: 2309
Flags: HMW
LayerCount: 2
Fore
SplineSet
1102 722 m 0
 1102 398 980 140 720 140 c 0
 530 140 408 252 408 460 c 0
 408 760 616 1058 892 1058 c 0
 1082 1058 1102 886 1102 722 c 0
1078 692 m 0
 1078 776 1078 926 1034 926 c 0
 968 926 850 728 850 480 c 0
 850 346 880 274 928 274 c 0
 990 274 1078 450 1078 692 c 0
1040 420 m 2
 1184 1040 l 1
 1604 1040 l 1
 1458 410 l 2
 1436 312 1404 204 1486 204 c 0
 1672 204 1882 470 1882 802 c 0
 1882 1158 1662 1552 1168 1552 c 0
 602 1552 138 1034 138 422 c 0
 138 -184 486 -400 838 -400 c 0
 1164 -400 1374 -304 1550 -108 c 1
 1570 -128 l 1
 1402 -324 1164 -428 838 -428 c 0
 472 -428 110 -206 110 422 c 0
 110 1048 584 1580 1170 1580 c 0
 1676 1580 1910 1168 1910 802 c 0
 1910 462 1724 136 1322 136 c 0
 1024 136 1012 296 1040 420 c 2
EndSplineSet
EndChar

StartChar: dollar
Encoding: 36 36 80
GlifName: dollar
Width: 1289
Flags: HMW
LayerCount: 2
Fore
SplineSet
798 1660 m 1
 832 1660 l 1
 412 -160 l 1
 378 -160 l 1
 798 1660 l 1
938 1660 m 1
 972 1660 l 1
 552 -160 l 1
 518 -160 l 1
 938 1660 l 1
600 1270 m 0
 600 960 1230 1080 1230 560 c 0
 1230 180 832 -30 550 -30 c 0
 278 -30 60 140 60 360 c 0
 60 472 132 574 260 574 c 0
 360 574 448 500 448 392 c 0
 448 252 352 192 244 192 c 0
 190 192 144 214 118 238 c 1
 166 130 318 -2 550 -2 c 0
 762 -2 890 132 890 270 c 0
 890 620 260 450 260 970 c 0
 260 1310 632 1520 894 1520 c 0
 1110 1520 1310 1382 1310 1200 c 0
 1310 1108 1244 1004 1116 1004 c 0
 1016 1004 922 1068 922 1190 c 0
 922 1310 1032 1368 1120 1368 c 0
 1180 1368 1226 1338 1242 1320 c 1
 1200 1398 1076 1488 894 1488 c 0
 682 1488 600 1368 600 1270 c 0
EndSplineSet
EndChar

StartChar: numbersign
Encoding: 35 35 81
GlifName: numbersign
Width: 1259
Flags: HMW
LayerCount: 2
Fore
SplineSet
132 520 m 1
 1212 520 l 1
 1212 492 l 1
 132 492 l 1
 132 520 l 1
232 1038 m 1
 1312 1038 l 1
 1312 1010 l 1
 232 1010 l 1
 232 1038 l 1
1088 1508 m 1
 1116 1510 l 1
 766 -10 l 1
 738 -12 l 1
 1088 1508 l 1
688 1510 m 1
 716 1510 l 1
 366 -10 l 1
 338 -10 l 1
 688 1510 l 1
EndSplineSet
EndChar

StartChar: slash
Encoding: 47 47 82
GlifName: slash
Width: 1039
Flags: HMW
LayerCount: 2
Fore
SplineSet
1206 1560 m 1
 1240 1560 l 1
 -26 -300 l 1
 -60 -300 l 1
 1206 1560 l 1
EndSplineSet
EndChar

StartChar: percent
Encoding: 37 37 83
GlifName: percent
Width: 2000
Flags: HMW
LayerCount: 2
Fore
SplineSet
1460 -20 m 0
 1234 -20 1060 74 1060 280 c 0
 1060 606 1334 860 1640 860 c 0
 1866 860 2040 766 2040 560 c 0
 2040 234 1766 -20 1460 -20 c 0
1660 834 m 0
 1572 834 1400 260 1400 96 c 0
 1400 52 1412 8 1440 8 c 0
 1528 8 1690 590 1690 754 c 0
 1690 798 1688 834 1660 834 c 0
1754 1500 m 1
 1790 1500 l 1
 422 0 l 1
 386 0 l 1
 1754 1500 l 1
550 640 m 0
 324 640 150 734 150 940 c 0
 150 1266 424 1520 730 1520 c 0
 956 1520 1130 1426 1130 1220 c 0
 1130 894 856 640 550 640 c 0
750 1492 m 0
 662 1492 490 920 490 756 c 0
 490 712 502 668 530 668 c 0
 618 668 780 1250 780 1414 c 0
 780 1458 778 1492 750 1492 c 0
EndSplineSet
EndChar

StartChar: hyphen
Encoding: 45 45 85
GlifName: hyphen
Width: 719
Flags: HMW
LayerCount: 2
Fore
SplineSet
166 564 m 1
 646 564 l 1
 646 536 l 1
 166 536 l 1
 166 564 l 1
EndSplineSet
EndChar

StartChar: plus
Encoding: 43 43 87
GlifName: plus
Width: 1059
Flags: HMW
LayerCount: 2
Fore
SplineSet
486 220 m 1
 676 1040 l 1
 704 1040 l 1
 514 220 l 1
 486 220 l 1
186 646 m 1
 1006 646 l 1
 1006 618 l 1
 186 618 l 1
 186 646 l 1
EndSplineSet
EndChar

StartChar: less
Encoding: 60 60 89
GlifName: less
Width: 1119
Flags: HMW
LayerCount: 2
Fore
SplineSet
220 764 m 1
 220 792 l 1
 1180 1200 l 1
 1180 1172 l 1
 220 764 l 1
220 758 m 1
 220 786 l 1
 1000 378 l 1
 1000 350 l 1
 220 758 l 1
EndSplineSet
EndChar

StartChar: backslash
Encoding: 92 92 91
GlifName: backslash
Width: 1039
Flags: HMW
LayerCount: 2
Fore
SplineSet
392 1560 m 1
 820 -300 l 1
 788 -300 l 1
 360 1560 l 1
 392 1560 l 1
EndSplineSet
EndChar

StartChar: bracketleft
Encoding: 91 91 92
GlifName: bracketleft
Width: 809
Flags: HMW
LayerCount: 2
Fore
SplineSet
400 1560 m 1
 1020 1560 l 1
 1020 1532 l 1
 772 1532 l 1
 368 -272 l 1
 600 -272 l 1
 600 -300 l 1
 -20 -300 l 1
 400 1560 l 1
EndSplineSet
EndChar

StartChar: braceleft
Encoding: 123 123 93
GlifName: braceleft
Width: 743
VWidth: 2309
Flags: HMW
LayerCount: 2
Fore
SplineSet
964 1560 m 1
 964 1520 l 1
 840 1520 700 1420 700 1234 c 0
 700 1122 728 1062 728 942 c 0
 728 716 378 640 170 620 c 1
 170 650 l 1
 230 670 360 712 360 814 c 0
 360 940 304 968 304 1142 c 0
 304 1420 634 1560 964 1560 c 1
544 -300 m 1
 214 -300 10 -238 10 -20 c 0
 10 234 270 364 270 490 c 0
 270 572 230 590 170 610 c 1
 170 640 l 1
 378 620 584 586 584 400 c 0
 584 200 396 60 396 -92 c 0
 396 -178 420 -260 544 -260 c 1
 544 -300 l 1
EndSplineSet
EndChar

StartChar: bar
Encoding: 124 124 96
GlifName: bar
Width: 459
VWidth: 2309
Flags: HMW
LayerCount: 2
Fore
SplineSet
498 1560 m 1
 524 1560 l 1
 44 -500 l 1
 18 -500 l 1
 498 1560 l 1
EndSplineSet
EndChar

StartChar: cent
Encoding: 162 162 98
GlifName: cent
Width: 1059
VWidth: 2309
Flags: HMW
LayerCount: 2
Fore
SplineSet
756 1110 m 1
 416 -170 l 1
 388 -170 l 1
 728 1110 l 1
 756 1110 l 1
EndSplineSet
Refer: 40 99 N 1 0 0 1 0 0 2
EndChar

StartChar: sterling
Encoding: 163 163 99
GlifName: sterling
Width: 1367
VWidth: 2309
Flags: HMW
LayerCount: 2
Fore
SplineSet
1384 554 m 1
 1344 256 1162 -60 876 -60 c 0
 602 -60 408 60 282 60 c 0
 192 60 124 20 92 -40 c 1
 76 -40 l 1
 156 188 464 434 670 434 c 0
 858 434 904 366 1064 366 c 0
 1198 366 1316 390 1356 554 c 1
 1384 554 l 1
1230 810 m 1
 1230 782 l 1
 130 782 l 1
 130 810 l 1
 1230 810 l 1
316 1040 m 0
 316 1340 688 1520 1050 1520 c 0
 1374 1520 1494 1356 1494 1152 c 0
 1494 1010 1386 908 1266 908 c 0
 1136 908 1032 1000 1032 1140 c 0
 1032 1270 1148 1350 1266 1350 c 0
 1376 1350 1442 1274 1466 1218 c 1
 1426 1402 1292 1482 1130 1482 c 0
 932 1482 818 1308 818 1160 c 0
 818 1042 860 1010 860 860 c 0
 860 440 86 390 92 -40 c 1
 64 -40 l 1
 46 238 378 374 378 622 c 0
 378 750 316 870 316 1040 c 0
EndSplineSet
EndChar

StartChar: section
Encoding: 167 167 101
GlifName: section
Width: 947
VWidth: 2309
Flags: HMW
LayerCount: 2
Fore
SplineSet
502 1296 m 0
 502 1076 976 1126 976 828 c 0
 976 672 800 596 694 528 c 1
 676 536 l 1
 732 580 758 598 758 678 c 0
 758 854 276 782 276 1126 c 0
 276 1334 526 1520 756 1520 c 0
 952 1520 1090 1404 1090 1272 c 0
 1090 1150 1014 1080 904 1080 c 0
 804 1080 736 1140 736 1252 c 0
 736 1336 812 1402 898 1402 c 0
 988 1402 1018 1368 1044 1338 c 1
 1024 1394 950 1492 756 1492 c 0
 610 1492 502 1410 502 1296 c 0
880 384 m 0
 880 176 620 -20 350 -20 c 0
 174 -20 -38 56 -38 248 c 0
 -38 350 38 432 158 432 c 0
 258 432 330 378 330 286 c 0
 330 182 254 110 156 110 c 0
 74 110 22 154 -6 198 c 1
 40 48 224 4 350 4 c 0
 556 4 660 126 660 194 c 0
 660 380 138 364 138 650 c 0
 138 794 316 948 424 980 c 1
 450 980 l 1
 414 968 358 932 358 862 c 0
 358 686 880 668 880 384 c 0
EndSplineSet
EndChar

StartChar: brokenbar
Encoding: 166 166 102
GlifName: brokenbar
Width: 439
VWidth: 2309
Flags: HMW
LayerCount: 2
Fore
SplineSet
206 332 m 1
 230 332 l 1
 38 -500 l 1
 14 -500 l 1
 206 332 l 1
490 1560 m 1
 514 1560 l 1
 342 818 l 1
 318 818 l 1
 490 1560 l 1
EndSplineSet
EndChar

StartChar: asciitilde
Encoding: 126 126 104
GlifName: asciitilde
Width: 1375
VWidth: 2309
Flags: HMW
LayerCount: 2
Fore
SplineSet
526 814 m 0
 420 814 370 770 340 686 c 1
 300 686 l 1
 360 916 440 1080 638 1080 c 0
 858 1080 878 892 1070 892 c 0
 1196 892 1246 936 1276 1020 c 1
 1316 1020 l 1
 1256 790 1176 626 978 626 c 0
 724 626 732 814 526 814 c 0
EndSplineSet
EndChar

StartChar: copyright
Encoding: 169 169 105
GlifName: copyright
Width: 1739
Flags: HMW
LayerCount: 2
Fore
SplineSet
170 610 m 0
 170 1076 614 1520 1080 1520 c 0
 1466 1520 1750 1276 1750 890 c 0
 1750 424 1306 -20 840 -20 c 0
 454 -20 170 224 170 610 c 0
198 610 m 0
 198 240 470 8 840 8 c 0
 1290 8 1722 440 1722 890 c 0
 1722 1260 1450 1492 1080 1492 c 0
 630 1492 198 1060 198 610 c 0
EndSplineSet
Refer: 14 67 N 0.6 0 0 0.6 424 300 2
EndChar

StartChar: registered
Encoding: 174 174 106
GlifName: registered
Width: 1739
Flags: HMW
LayerCount: 2
Fore
SplineSet
170 610 m 0
 170 1076 614 1520 1080 1520 c 0
 1466 1520 1750 1276 1750 890 c 0
 1750 424 1306 -20 840 -20 c 0
 454 -20 170 224 170 610 c 0
198 610 m 0
 198 240 470 8 840 8 c 0
 1290 8 1722 440 1722 890 c 0
 1722 1260 1450 1492 1080 1492 c 0
 630 1492 198 1060 198 610 c 0
EndSplineSet
Refer: 29 82 S 0.6 0 0 0.6 456 296 2
EndChar

StartChar: logicalnot
Encoding: 172 172 107
GlifName: logicalnot
Width: 971
Flags: HMW
LayerCount: 2
Fore
SplineSet
998 1202 m 1
 300 1202 l 1
 300 1230 l 1
 1032 1230 l 1
 942 826 l 1
 916 826 l 1
 998 1202 l 1
EndSplineSet
EndChar

StartChar: guillemotleft
Encoding: 171 171 108
GlifName: guillemotleft
Width: 1389
Flags: HMW
LayerCount: 2
Fore
SplineSet
1162 776 m 1
 1284 304 l 1
 1270 290 l 1
 710 750 l 1
 710 800 l 1
 1490 1260 l 1
 1504 1246 l 1
 1162 776 l 1
602 776 m 1
 724 304 l 1
 710 290 l 1
 150 750 l 1
 150 800 l 1
 930 1260 l 1
 944 1246 l 1
 602 776 l 1
EndSplineSet
EndChar

StartChar: mu
Encoding: 181 181 111
GlifName: mu
Width: 1419
VWidth: 2309
Flags: HMW
LayerCount: 2
Fore
SplineSet
46 -182 m 2
 4 -362 26 -490 196 -500 c 1
 218 -496 l 1
 164 -464 138 -418 138 -362 c 0
 138 -294 194 -248 260 -248 c 0
 326 -248 382 -304 382 -380 c 0
 382 -458 338 -520 192 -520 c 0
 12 -520 -26 -372 18 -182 c 2
 208 642 l 1
 236 642 l 1
 46 -182 l 2
EndSplineSet
Refer: 58 117 N 1 0 0 1 0 0 2
EndChar

StartChar: asciicircum
Encoding: 94 94 113
GlifName: asciicircum
Width: 1089
Flags: HMW
LayerCount: 2
Fore
SplineSet
816 1446 m 1
 440 1240 l 1
 420 1260 l 1
 760 1540 l 1
 890 1540 l 1
 1110 1260 l 1
 1090 1240 l 1
 816 1446 l 1
EndSplineSet
EndChar

StartChar: degree
Encoding: 176 176 115
GlifName: degree
Width: 639
Flags: HMW
LayerCount: 2
Fore
SplineSet
388 1360 m 0
 388 1492 496 1600 628 1600 c 0
 760 1600 868 1492 868 1360 c 0
 868 1228 760 1120 628 1120 c 0
 496 1120 388 1228 388 1360 c 0
474 1360 m 0
 474 1272 540 1206 628 1206 c 0
 716 1206 782 1272 782 1360 c 0
 782 1448 716 1514 628 1514 c 0
 540 1514 474 1448 474 1360 c 0
EndSplineSet
EndChar

StartChar: onequarter
Encoding: 188 188 119
GlifName: onequarter
Width: 1281
Flags: HMW
LayerCount: 2
Fore
SplineSet
1248 1300 m 1
 1272 1300 l 1
 -10 -200 l 1
 -34 -200 l 1
 1248 1300 l 1
EndSplineSet
Refer: 6 52 N 0.6 0 0 0.6 480 -206 2
Refer: 3 49 N 0.6 0 0 0.6 204 712 2
EndChar

StartChar: onehalf
Encoding: 189 189 120
GlifName: onehalf
Width: 1339
Flags: HMW
LayerCount: 2
Fore
SplineSet
1248 1300 m 1
 1272 1300 l 1
 -10 -200 l 1
 -34 -200 l 1
 1248 1300 l 1
EndSplineSet
Refer: 4 50 N 0.6 0 0 0.6 682 -202 2
Refer: 3 49 N 0.6 0 0 0.6 204 712 2
EndChar

StartChar: threequarters
Encoding: 190 190 121
GlifName: threequarters
Width: 1401
Flags: HMW
LayerCount: 2
Fore
SplineSet
1368 1300 m 1
 1392 1300 l 1
 110 -200 l 1
 86 -200 l 1
 1368 1300 l 1
EndSplineSet
Refer: 5 51 N 0.6 0 0 0.6 170 708 2
Refer: 6 52 N 0.6 0 0 0.6 600 -206 2
EndChar

StartChar: grave
Encoding: 96 96 123
GlifName: grave
Width: 829
Flags: HMW
LayerCount: 2
Fore
SplineSet
568 1360 m 2
 470 1340 378 1412 378 1510 c 0
 378 1608 488 1700 588 1656 c 2
 1004 1474 l 1
 998 1446 l 1
 568 1360 l 2
EndSplineSet
EndChar

StartChar: acute
Encoding: 180 180 124
GlifName: acute
Width: 829
Flags: HMW
LayerCount: 2
Fore
SplineSet
890 1340 m 2
 460 1426 l 1
 454 1454 l 1
 870 1636 l 2
 970 1680 1080 1588 1080 1490 c 0
 1080 1392 988 1320 890 1340 c 2
EndSplineSet
EndChar

StartChar: multiply
Encoding: 215 215 127
GlifName: multiply
Width: 1059
Flags: HMW
LayerCount: 2
Fore
SplineSet
810 330 m 1
 360 910 l 1
 380 930 l 1
 830 350 l 1
 810 330 l 1
228 352 m 1
 938 932 l 1
 958 912 l 1
 248 332 l 1
 228 352 l 1
EndSplineSet
EndChar

StartChar: cedilla
Encoding: 184 184 128
GlifName: cedilla
Width: 1099
Flags: HMW
LayerCount: 2
Fore
SplineSet
474 -158 m 1
 714 82 l 1
 752 82 l 1
 512 -158 l 1
 474 -158 l 1
474 -158 m 1
 568 -78 l 1
 738 -78 908 -100 908 -220 c 0
 908 -380 664 -440 402 -440 c 1
 402 -412 l 1
 520 -412 598 -356 598 -260 c 0
 598 -194 564 -158 474 -158 c 1
EndSplineSet
EndChar

StartChar: divide
Encoding: 247 247 131
GlifName: divide
Width: 1219
Flags: HMW
LayerCount: 2
Fore
SplineSet
189 804 m 1
 1309 804 l 1
 1309 776 l 1
 189 776 l 1
 189 804 l 1
440 380 m 0
 440 512 548 620 680 620 c 0
 812 620 920 512 920 380 c 0
 920 248 812 140 680 140 c 0
 548 140 440 248 440 380 c 0
600 1190 m 0
 600 1322 708 1430 840 1430 c 0
 972 1430 1080 1322 1080 1190 c 0
 1080 1058 972 950 840 950 c 0
 708 950 600 1058 600 1190 c 0
EndSplineSet
EndChar

StartChar: ring
Encoding: 730 730 271
GlifName: ring
Width: 639
VWidth: 0
Flags: HMW
LayerCount: 2
Fore
SplineSet
330 1360 m 0
 330 1462 418 1540 560 1540 c 0
 702 1540 790 1462 790 1360 c 0
 790 1258 702 1180 560 1180 c 0
 418 1180 330 1258 330 1360 c 0
496 1262 m 0
 496 1238 496 1208 530 1208 c 0
 584 1208 624 1394 624 1458 c 0
 624 1482 624 1512 590 1512 c 0
 536 1512 496 1326 496 1262 c 0
EndSplineSet
EndChar

StartChar: tilde
Encoding: 732 732 272
GlifName: tilde
Width: 895
VWidth: 0
Flags: HMW
LayerCount: 2
Fore
SplineSet
452 1278 m 0
 406 1278 358 1264 318 1200 c 1
 290 1200 l 1
 330 1370 400 1514 558 1514 c 0
 698 1514 784 1356 884 1356 c 0
 930 1356 978 1370 1018 1434 c 1
 1046 1434 l 1
 1006 1244 956 1120 798 1120 c 0
 644 1120 566 1278 452 1278 c 0
EndSplineSet
EndChar

StartChar: AE
Encoding: 198 198 274
GlifName: A_E_
Width: 2119
Flags: HMW
LayerCount: 2
Fore
SplineSet
1498 1500 m 1
 2308 1500 l 1
 2212 1090 l 1
 2184 1090 l 1
 2174 1304 2052 1472 1818 1472 c 2
 1498 1472 l 1
 1498 1500 l 1
1556 762 m 2
 1434 762 l 1
 1434 790 l 1
 1556 790 l 2
 1670 790 1804 912 1894 1046 c 1
 1922 1046 l 1
 1794 496 l 1
 1766 496 l 1
 1736 630 1670 762 1556 762 c 2
1980 0 m 1
 800 0 l 1
 800 28 l 1
 1470 28 l 2
 1744 28 1938 196 2056 450 c 1
 2084 450 l 1
 1980 0 l 1
1318 1500 m 1
 1748 1500 l 1
 1400 0 l 1
 970 0 l 1
 1318 1500 l 1
518 504 m 1
 1110 504 l 1
 1110 476 l 1
 518 476 l 1
 518 504 l 1
1298 1500 m 1
 1332 1500 l 1
 150 0 l 1
 110 0 l 1
 1298 1500 l 1
-50 28 m 1
 390 28 l 1
 390 0 l 1
 -50 0 l 1
 -50 28 l 1
EndSplineSet
EndChar

StartChar: Eth
Encoding: 208 208 275
GlifName: E_th
Width: 1639
Flags: HMW
LayerCount: 2
Fore
SplineSet
158 764 m 5
 962 764 l 5
 962 736 l 5
 158 736 l 5
 158 764 l 5
468 1500 m 1
 898 1500 l 1
 558 0 l 1
 128 0 l 1
 468 1500 l 1
758 0 m 2
 -52 0 l 1
 -52 28 l 1
 678 28 l 2
 1046 28 1210 806 1210 1130 c 0
 1210 1314 1186 1472 998 1472 c 2
 268 1472 l 1
 268 1500 l 1
 1058 1500 l 2
 1384 1500 1668 1336 1668 950 c 0
 1668 464 1304 0 758 0 c 2
EndSplineSet
EndChar

StartChar: ae
Encoding: 230 230 277
GlifName: ae
Width: 1825
VWidth: 2309
Flags: HMW
LayerCount: 2
Fore
SplineSet
548 516 m 2
 736 516 l 1
 736 488 l 1
 668 488 l 2
 556 488 426 320 426 136 c 0
 426 42 450 10 480 10 c 0
 574 10 632 166 676 362 c 2
 732 610 l 2
 760 738 746 910 606 910 c 0
 530 910 460 886 420 862 c 1
 512 892 648 860 648 736 c 0
 648 636 560 542 430 542 c 0
 290 542 226 600 226 692 c 0
 226 816 404 936 626 936 c 0
 886 936 1084 872 1052 610 c 1
 986 362 l 1
 940 114 642 -20 380 -20 c 0
 182 -20 36 38 36 186 c 0
 36 374 224 516 548 516 c 2
1466 772 m 0
 1466 846 1454 914 1412 914 c 0
 1334 914 1178 568 1178 240 c 0
 1178 112 1210 36 1308 36 c 0
 1414 36 1570 136 1682 286 c 1
 1708 286 l 1
 1610 132 1430 -20 1148 -20 c 0
 986 -20 830 80 830 320 c 1
 870 310 l 1
 874 690 1132 940 1452 940 c 0
 1616 940 1818 888 1818 724 c 0
 1818 404 1222 392 1160 392 c 1
 1160 416 l 1
 1218 416 1466 516 1466 772 c 0
EndSplineSet
EndChar

StartChar: perthousand
Encoding: 8240 8240 285
GlifName: perthousand
Width: 3039
Flags: HMW
LayerCount: 2
Fore
SplineSet
2500 -20 m 0
 2274 -20 2100 74 2100 280 c 0
 2100 606 2374 860 2680 860 c 0
 2906 860 3080 766 3080 560 c 0
 3080 234 2806 -20 2500 -20 c 0
2700 834 m 0
 2612 834 2440 260 2440 96 c 0
 2440 52 2452 8 2480 8 c 0
 2568 8 2730 590 2730 754 c 0
 2730 798 2728 834 2700 834 c 0
1460 -20 m 0
 1234 -20 1060 74 1060 280 c 0
 1060 606 1334 860 1640 860 c 0
 1866 860 2040 766 2040 560 c 0
 2040 234 1766 -20 1460 -20 c 0
1660 834 m 0
 1572 834 1400 260 1400 96 c 0
 1400 52 1412 8 1440 8 c 0
 1528 8 1690 590 1690 754 c 0
 1690 798 1688 834 1660 834 c 0
1754 1500 m 1
 1790 1500 l 1
 422 0 l 1
 386 0 l 1
 1754 1500 l 1
550 640 m 0
 324 640 150 734 150 940 c 0
 150 1266 424 1520 730 1520 c 0
 956 1520 1130 1426 1130 1220 c 0
 1130 894 856 640 550 640 c 0
750 1492 m 0
 662 1492 490 920 490 756 c 0
 490 712 502 668 530 668 c 0
 618 668 780 1250 780 1414 c 0
 780 1458 778 1492 750 1492 c 0
EndSplineSet
EndChar

StartChar: uni2031
Encoding: 8241 8241 286
GlifName: uni2031
Width: 4079
Flags: HMW
LayerCount: 2
Fore
SplineSet
3540 -20 m 0
 3314 -20 3140 74 3140 280 c 0
 3140 606 3414 860 3720 860 c 0
 3946 860 4120 766 4120 560 c 0
 4120 234 3846 -20 3540 -20 c 0
3740 834 m 0
 3652 834 3480 260 3480 96 c 0
 3480 52 3492 8 3520 8 c 0
 3608 8 3770 590 3770 754 c 0
 3770 798 3768 834 3740 834 c 0
2500 -20 m 0
 2274 -20 2100 74 2100 280 c 0
 2100 606 2374 860 2680 860 c 0
 2906 860 3080 766 3080 560 c 0
 3080 234 2806 -20 2500 -20 c 0
2700 834 m 0
 2612 834 2440 260 2440 96 c 0
 2440 52 2452 8 2480 8 c 0
 2568 8 2730 590 2730 754 c 0
 2730 798 2728 834 2700 834 c 0
1460 -20 m 0
 1234 -20 1060 74 1060 280 c 0
 1060 606 1334 860 1640 860 c 0
 1866 860 2040 766 2040 560 c 0
 2040 234 1766 -20 1460 -20 c 0
1660 834 m 0
 1572 834 1400 260 1400 96 c 0
 1400 52 1412 8 1440 8 c 0
 1528 8 1690 590 1690 754 c 0
 1690 798 1688 834 1660 834 c 0
1754 1500 m 1
 1790 1500 l 1
 422 0 l 1
 386 0 l 1
 1754 1500 l 1
550 640 m 0
 324 640 150 734 150 940 c 0
 150 1266 424 1520 730 1520 c 0
 956 1520 1130 1426 1130 1220 c 0
 1130 894 856 640 550 640 c 0
750 1492 m 0
 662 1492 490 920 490 756 c 0
 490 712 502 668 530 668 c 0
 618 668 780 1250 780 1414 c 0
 780 1458 778 1492 750 1492 c 0
EndSplineSet
EndChar

StartChar: uniFB00
Encoding: 64256 64256 290
GlifName: uniF_B_00
Width: 1667
VWidth: 2309
Flags: HMW
LayerCount: 2
Fore
SplineSet
172 920 m 1
 1672 920 l 1
 1672 892 l 1
 172 892 l 1
 172 920 l 1
1876 1402 m 1
 1850 1444 1764 1488 1680 1488 c 0
 1540 1488 1454 1324 1412 1080 c 2
 1238 76 l 2
 1170 -312 902 -420 642 -420 c 0
 420 -420 288 -286 288 -162 c 0
 288 -40 360 42 480 42 c 0
 590 42 694 -26 694 -146 c 0
 694 -266 604 -344 498 -344 c 0
 454 -344 412 -324 400 -302 c 1
 426 -344 512 -388 596 -388 c 0
 736 -388 822 -224 864 20 c 2
 1038 1024 l 2
 1106 1412 1374 1520 1634 1520 c 0
 1856 1520 1988 1386 1988 1262 c 0
 1988 1140 1916 1058 1796 1058 c 0
 1686 1058 1582 1126 1582 1246 c 0
 1582 1366 1672 1444 1778 1444 c 0
 1820 1444 1856 1426 1876 1402 c 1
1178 1302 m 1
 1152 1344 1066 1388 982 1388 c 0
 842 1388 768 1288 726 1044 c 2
 540 -24 l 2
 472 -412 204 -520 -56 -520 c 0
 -278 -520 -410 -386 -410 -262 c 0
 -410 -140 -338 -58 -218 -58 c 0
 -108 -58 -4 -126 -4 -246 c 0
 -4 -366 -94 -444 -200 -444 c 0
 -244 -444 -286 -424 -298 -402 c 1
 -272 -444 -186 -488 -102 -488 c 0
 38 -488 124 -324 166 -80 c 2
 340 924 l 2
 408 1312 676 1420 936 1420 c 0
 1158 1420 1290 1286 1290 1162 c 0
 1290 1040 1218 958 1098 958 c 0
 988 958 884 1026 884 1146 c 0
 884 1266 974 1344 1080 1344 c 0
 1122 1344 1158 1326 1178 1302 c 1
EndSplineSet
Ligature2: "'liga' Standard Ligatures lookup 0-1" f f
LCarets2: 1 0
EndChar

StartChar: uniFB01
Encoding: 64257 64257 291
GlifName: uniF_B_01
Width: 1567
VWidth: 2309
Flags: HMW
LayerCount: 2
Fore
SplineSet
1528 326 m 1
 1452 126 1294 -20 1072 -20 c 0
 918 -20 840 26 840 166 c 0
 840 176 840 198 844 210 c 2
 1018 892 l 1
 172 892 l 1
 172 920 l 1
 1404 920 l 1
 1206 138 l 2
 1204 126 1202 112 1202 102 c 0
 1202 80 1212 60 1238 60 c 0
 1326 60 1448 184 1502 334 c 1
 1528 326 l 1
1296 1402 m 1
 1266 1452 1178 1488 1080 1488 c 0
 912 1488 776 1330 732 1080 c 2
 540 -24 l 2
 472 -412 204 -520 -56 -520 c 0
 -278 -520 -410 -386 -410 -262 c 0
 -410 -140 -338 -58 -218 -58 c 0
 -108 -58 -4 -126 -4 -246 c 0
 -4 -366 -94 -444 -200 -444 c 0
 -244 -444 -286 -424 -298 -402 c 1
 -272 -444 -186 -488 -102 -488 c 0
 38 -488 124 -324 166 -80 c 2
 358 1024 l 2
 426 1412 734 1520 1034 1520 c 0
 1286 1520 1408 1394 1408 1262 c 0
 1408 1140 1336 1058 1216 1058 c 0
 1106 1058 1002 1126 1002 1246 c 0
 1002 1366 1092 1444 1198 1444 c 0
 1238 1444 1280 1426 1296 1402 c 1
EndSplineSet
Ligature2: "'liga' Standard Ligatures lookup 0-1" f i
LCarets2: 1 0
EndChar

StartChar: uniFB02
Encoding: 64258 64258 292
GlifName: uniF_B_02
Width: 1677
VWidth: 2309
Flags: HMW
LayerCount: 2
Fore
SplineSet
1638 326 m 5
 1562 126 1404 -20 1182 -20 c 4
 1028 -20 950 26 950 166 c 4
 950 176 952 198 954 210 c 6
 1240 1460 l 5
 1638 1540 l 5
 1316 138 l 6
 1314 126 1312 112 1312 102 c 4
 1312 80 1322 60 1348 60 c 4
 1434 60 1558 182 1612 334 c 5
 1638 326 l 5
172 920 m 5
 992 920 l 5
 992 892 l 5
 172 892 l 5
 172 920 l 5
1368 1262 m 4
 1368 1140 1296 1058 1176 1058 c 4
 1066 1058 962 1126 962 1246 c 4
 962 1366 1052 1444 1158 1444 c 4
 1198 1444 1240 1426 1256 1402 c 5
 1230 1444 1132 1488 1048 1488 c 4
 894 1488 774 1324 732 1080 c 6
 540 -24 l 6
 472 -412 204 -520 -56 -520 c 4
 -278 -520 -410 -386 -410 -262 c 4
 -410 -140 -338 -58 -218 -58 c 4
 -108 -58 -4 -126 -4 -246 c 4
 -4 -366 -94 -444 -200 -444 c 4
 -244 -444 -286 -424 -298 -402 c 5
 -272 -444 -186 -488 -102 -488 c 4
 38 -488 124 -324 166 -80 c 6
 358 1024 l 6
 428 1424 726 1520 1014 1520 c 4
 1214 1520 1368 1394 1368 1262 c 4
EndSplineSet
Ligature2: "'liga' Standard Ligatures lookup 0-1" f l
LCarets2: 1 0
EndChar

StartChar: uniFB03
Encoding: 64259 64259 293
GlifName: uniF_B_03
Width: 2247
VWidth: 2309
Flags: HMW
LayerCount: 2
Fore
SplineSet
2208 326 m 5
 2132 126 1974 -20 1752 -20 c 4
 1598 -20 1520 26 1520 166 c 4
 1520 176 1520 198 1524 210 c 6
 1698 892 l 5
 172 892 l 5
 172 920 l 5
 2084 920 l 5
 1886 138 l 6
 1884 126 1882 112 1882 102 c 4
 1882 80 1892 60 1918 60 c 4
 2006 60 2128 184 2182 334 c 5
 2208 326 l 5
2088 1262 m 4
 2088 1140 2016 1058 1896 1058 c 4
 1786 1058 1682 1126 1682 1246 c 4
 1682 1366 1772 1444 1878 1444 c 4
 1918 1444 1960 1426 1976 1402 c 5
 1946 1452 1858 1488 1760 1488 c 4
 1592 1488 1456 1330 1412 1080 c 6
 1238 76 l 6
 1170 -312 902 -420 642 -420 c 4
 420 -420 288 -286 288 -162 c 4
 288 -40 360 42 480 42 c 4
 590 42 694 -26 694 -146 c 4
 694 -266 606 -344 500 -344 c 4
 456 -344 414 -324 402 -302 c 5
 428 -344 512 -388 596 -388 c 4
 736 -388 822 -224 864 20 c 6
 1038 1024 l 6
 1106 1412 1414 1520 1714 1520 c 4
 1960 1520 2088 1386 2088 1262 c 4
1178 1302 m 5
 1152 1344 1066 1388 982 1388 c 4
 842 1388 768 1288 726 1044 c 6
 540 -24 l 6
 472 -412 204 -520 -56 -520 c 4
 -278 -520 -410 -386 -410 -262 c 4
 -410 -140 -338 -58 -218 -58 c 4
 -108 -58 -4 -126 -4 -246 c 4
 -4 -366 -94 -444 -200 -444 c 4
 -244 -444 -286 -424 -298 -402 c 5
 -272 -444 -186 -488 -102 -488 c 4
 38 -488 124 -324 166 -80 c 6
 340 924 l 6
 408 1312 676 1420 936 1420 c 4
 1158 1420 1290 1286 1290 1162 c 4
 1290 1040 1218 958 1098 958 c 4
 988 958 884 1026 884 1146 c 4
 884 1266 974 1344 1080 1344 c 4
 1124 1344 1158 1326 1178 1302 c 5
EndSplineSet
Ligature2: "'liga' Standard Ligatures lookup 0-1" f f i
LCarets2: 2 0 0
EndChar

StartChar: uniFB04
Encoding: 64260 64260 294
GlifName: uniF_B_04
Width: 2357
VWidth: 2309
Flags: HMW
LayerCount: 2
Fore
SplineSet
2318 326 m 1
 2242 126 2084 -20 1862 -20 c 0
 1708 -20 1630 26 1630 166 c 0
 1630 176 1632 198 1634 210 c 2
 1920 1460 l 1
 2318 1540 l 1
 1996 138 l 2
 1994 126 1992 112 1992 102 c 0
 1992 80 2002 60 2028 60 c 0
 2114 60 2238 182 2292 334 c 1
 2318 326 l 1
172 920 m 1
 1672 920 l 1
 1672 892 l 1
 172 892 l 1
 172 920 l 1
1936 1402 m 1
 1910 1444 1812 1488 1728 1488 c 0
 1574 1488 1454 1324 1412 1080 c 2
 1238 76 l 2
 1170 -312 902 -420 642 -420 c 0
 420 -420 288 -286 288 -162 c 0
 288 -40 360 42 480 42 c 0
 590 42 694 -26 694 -146 c 0
 694 -266 604 -344 498 -344 c 0
 454 -344 412 -324 400 -302 c 1
 426 -344 512 -388 596 -388 c 0
 736 -388 822 -224 864 20 c 2
 1038 1024 l 2
 1108 1424 1406 1520 1694 1520 c 0
 1916 1520 2048 1386 2048 1262 c 0
 2048 1140 1976 1058 1856 1058 c 0
 1746 1058 1642 1126 1642 1246 c 0
 1642 1366 1732 1444 1838 1444 c 0
 1880 1444 1918 1426 1936 1402 c 1
1178 1302 m 1
 1152 1344 1066 1388 982 1388 c 0
 842 1388 768 1288 726 1044 c 2
 540 -24 l 2
 472 -412 204 -520 -56 -520 c 0
 -278 -520 -410 -386 -410 -262 c 0
 -410 -140 -338 -58 -218 -58 c 0
 -108 -58 -4 -126 -4 -246 c 0
 -4 -366 -94 -444 -200 -444 c 0
 -244 -444 -286 -424 -298 -402 c 1
 -272 -444 -186 -488 -102 -488 c 0
 38 -488 124 -324 166 -80 c 2
 340 924 l 2
 408 1312 676 1420 936 1420 c 0
 1158 1420 1290 1286 1290 1162 c 0
 1290 1040 1218 958 1098 958 c 0
 988 958 884 1026 884 1146 c 0
 884 1266 974 1344 1080 1344 c 0
 1120 1344 1162 1326 1178 1302 c 1
EndSplineSet
Ligature2: "'liga' Standard Ligatures lookup 0-1" f f l
LCarets2: 2 0 0
EndChar

StartChar: ogonek
Encoding: 731 731 295
GlifName: ogonek
Width: 1099
Flags: HMW
LayerCount: 2
Fore
SplineSet
776 -226 m 1
 746 -282 648 -412 446 -412 c 0
 304 -412 196 -362 196 -262 c 0
 196 -102 486 26 688 86 c 1
 694 72 l 1
 632 30 556 -104 556 -230 c 0
 556 -304 572 -338 610 -338 c 0
 668 -338 732 -258 754 -216 c 1
 776 -226 l 1
EndSplineSet
EndChar

StartChar: dotlessi
Encoding: 305 305 296
GlifName: dotlessi
Width: 827
VWidth: 2309
Flags: HMW
LayerCount: 2
Fore
SplineSet
788 326 m 1
 712 126 554 -20 332 -20 c 0
 178 -20 100 26 100 166 c 0
 100 176 100 198 104 210 c 2
 278 892 l 1
 120 892 l 1
 120 920 l 1
 664 920 l 1
 466 138 l 2
 464 126 462 112 462 102 c 0
 462 80 472 60 498 60 c 0
 586 60 708 184 762 334 c 1
 788 326 l 1
EndSplineSet
EndChar

StartChar: uni0237
Encoding: 567 567 297
GlifName: uni0237
Width: 673
VWidth: 2309
Flags: HMW
LayerCount: 2
Fore
SplineSet
-340 -408 m 1
 -310 -448 -226 -486 -134 -486 c 0
 66 -486 34 -200 90 40 c 2
 288 892 l 1
 106 892 l 1
 106 920 l 1
 676 920 l 1
 480 -24 l 2
 428 -274 136 -520 -124 -520 c 0
 -306 -520 -470 -406 -470 -272 c 0
 -470 -150 -366 -58 -246 -58 c 0
 -136 -58 -44 -140 -44 -234 c 0
 -44 -348 -142 -440 -258 -440 c 0
 -292 -440 -320 -426 -340 -408 c 1
EndSplineSet
EndChar

StartChar: kgreenlandic
Encoding: 312 312 306
GlifName: kgreenlandic
Width: 1365
VWidth: 2309
Flags: HMW
LayerCount: 2
Fore
SplineSet
1310 326 m 1
 1234 126 1096 -20 894 -20 c 0
 740 -20 628 26 628 166 c 0
 628 176 630 198 632 210 c 2
 646 280 l 2
 670 396 730 530 674 530 c 0
 624 530 582 456 564 380 c 1
 544 380 l 1
 592 544 646 588 788 588 c 0
 926 588 1070 502 1010 242 c 2
 984 98 l 2
 984 94 982 84 982 80 c 0
 982 58 996 48 1022 48 c 0
 1116 48 1234 192 1284 334 c 1
 1310 326 l 1
604 497 m 1
 618 518 l 1
 622 512 630 510 650 510 c 0
 722 510 740 596 792 724 c 0
 848 860 946 940 1066 940 c 0
 1196 940 1330 842 1330 698 c 0
 1330 588 1248 498 1138 498 c 0
 1028 498 958 592 958 678 c 0
 958 774 1042 852 1138 852 c 0
 1194 852 1248 824 1262 796 c 1
 1240 860 1156 912 1064 912 c 0
 970 912 874 850 820 714 c 0
 766 578 748 484 650 484 c 0
 626 484 609 486 604 497 c 1
303 892 m 5
 129 892 l 5
 129 920 l 5
 689 920 l 5
 476 0 l 1
 96 0 l 1
 303 892 l 5
EndSplineSet
EndChar

StartChar: breve
Encoding: 728 728 307
GlifName: breve
Width: 639
VWidth: 2309
Flags: HMW
LayerCount: 2
Fore
SplineSet
348 1518 m 1
 338 1444 432 1410 540 1410 c 0
 648 1410 780 1420 812 1518 c 1
 840 1518 l 1
 820 1396 760 1140 520 1140 c 0
 300 1140 300 1396 320 1518 c 1
 348 1518 l 1
EndSplineSet
EndChar

StartChar: thorn
Encoding: 254 254 318
GlifName: thorn
Width: 1299
VWidth: 2309
Flags: HMW
LayerCount: 2
Fore
SplineSet
528 290 m 0
 528 184 554 102 604 102 c 0
 692 102 842 418 842 686 c 0
 842 762 814 814 772 814 c 0
 660 814 528 498 528 290 c 0
506 290 m 0
 506 506 650 938 932 938 c 0
 1070 938 1250 858 1250 598 c 0
 1250 198 936 -20 730 -20 c 0
 578 -20 506 106 506 290 c 0
-190 -472 m 1
 460 -472 l 1
 460 -500 l 1
 -190 -500 l 1
 -190 -472 l 1
394 1472 m 1
 258 1472 l 1
 258 1500 l 1
 782 1500 l 1
 568 578 l 1
 526 434 l 1
 514 326 l 1
 320 -500 l 1
 -60 -500 l 1
 394 1472 l 1
EndSplineSet
EndChar

StartChar: Thorn
Encoding: 222 222 319
GlifName: T_horn
Width: 1469
Flags: HMW
LayerCount: 2
Fore
SplineSet
750 360 m 2
 530 360 l 1
 530 388 l 1
 650 388 l 2
 882 388 974 742 974 960 c 0
 974 1078 942 1172 850 1172 c 2
 520 1172 l 1
 520 1200 l 1
 950 1200 l 2
 1212 1200 1430 1120 1430 880 c 0
 1430 580 1152 360 750 360 c 2
-90 28 m 1
 700 28 l 1
 700 0 l 1
 -90 0 l 1
 -90 28 l 1
250 1500 m 1
 1040 1500 l 1
 1040 1472 l 1
 250 1472 l 1
 250 1500 l 1
420 1500 m 1
 850 1500 l 1
 500 0 l 1
 70 0 l 1
 420 1500 l 1
EndSplineSet
EndChar

StartChar: Lslash
Encoding: 321 321 324
GlifName: L_slash
Width: 1303
Flags: HMW
LayerCount: 2
Fore
SplineSet
90 720 m 1
 980 1160 l 1
 980 1126 l 1
 90 686 l 1
 90 720 l 1
EndSplineSet
Refer: 23 76 N 1 0 0 1 0 0 2
EndChar

StartChar: lslash
Encoding: 322 322 325
GlifName: lslash
Width: 819
VWidth: 2309
Flags: HMW
LayerCount: 2
Fore
SplineSet
56 720 m 1
 866 1160 l 1
 866 1126 l 1
 56 686 l 1
 56 720 l 1
EndSplineSet
Refer: 49 108 N 1 0 0 1 0 0 2
EndChar

StartChar: eth
Encoding: 240 240 329
GlifName: eth
Width: 1319
VWidth: 2309
Flags: HMW
LayerCount: 2
Fore
SplineSet
520 1260 m 1
 1440 1260 l 1
 1440 1232 l 1
 520 1232 l 1
 520 1260 l 1
1314 760 m 0
 1314 340 934 -20 572 -20 c 0
 270 -20 80 120 80 380 c 0
 80 760 456 980 698 980 c 0
 866 980 890 914 870 680 c 1
 848 820 l 1
 848 900 816 932 782 932 c 0
 624 932 494 388 494 180 c 0
 494 52 508 8 566 8 c 0
 684 8 848 492 848 820 c 1
 864 768 l 1
 910 1200 818 1496 490 1496 c 1
 490 1520 l 1
 1036 1520 1314 1206 1314 760 c 0
EndSplineSet
EndChar

StartChar: OE
Encoding: 338 338 330
GlifName: O_E_
Width: 2157
Flags: HMW
LayerCount: 2
Fore
SplineSet
1078 1500 m 1
 1078 1460 l 1
 750 1460 538 774 538 310 c 0
 538 126 592 40 740 40 c 1
 740 0 l 1
 434 0 98 104 98 490 c 0
 98 1116 572 1500 1078 1500 c 1
EndSplineSet
Refer: 16 69 N 1 0 0 1 840 0 2
EndChar

StartChar: germandbls
Encoding: 223 223 332
GlifName: germandbls
Width: 1701
VWidth: 2309
Flags: HMW
LayerCount: 2
Fore
SplineSet
1642 480 m 0
 1642 100 1274 -20 992 -20 c 0
 774 -20 696 148 696 312 c 0
 696 444 780 562 910 562 c 0
 1030 562 1118 482 1118 370 c 0
 1118 266 1000 180 902 180 c 0
 800 180 766 216 728 252 c 1
 744 128 824 12 972 12 c 0
 1150 12 1220 312 1220 500 c 0
 1220 688 1144 798 1026 798 c 1
 1026 818 l 1
 1388 818 1642 740 1642 480 c 0
-50 28 m 1
 730 28 l 1
 730 0 l 1
 -50 0 l 1
 -50 28 l 1
1026 804 m 1
 1026 824 l 1
 1284 824 1340 1094 1340 1262 c 0
 1340 1406 1274 1496 1186 1496 c 0
 898 1496 832 1232 770 962 c 2
 550 0 l 1
 130 0 l 1
 360 982 l 2
 446 1366 760 1520 1206 1520 c 0
 1472 1520 1772 1448 1772 1202 c 0
 1772 942 1428 804 1026 804 c 1
EndSplineSet
EndChar

StartChar: uni0212
Encoding: 530 530 333
GlifName: uni0212
Width: 1639
VWidth: 0
Flags: HMW
LayerCount: 2
Fore
SplineSet
1182 1640 m 1
 1192 1714 1098 1748 990 1748 c 0
 882 1748 750 1738 718 1640 c 1
 690 1640 l 1
 710 1762 770 2018 1010 2018 c 0
 1230 2018 1230 1762 1210 1640 c 1
 1182 1640 l 1
EndSplineSet
Refer: 29 82 N 1 0 0 1 0 0 3
EndChar

StartChar: uni0213
Encoding: 531 531 334
GlifName: uni0213
Width: 1125
VWidth: 0
Flags: HMW
LayerCount: 2
Fore
SplineSet
930 1080 m 1
 940 1154 844 1188 736 1188 c 0
 628 1188 496 1178 464 1080 c 1
 436 1080 l 1
 456 1202 516 1458 756 1458 c 0
 976 1458 976 1202 956 1080 c 1
 930 1080 l 1
EndSplineSet
Refer: 55 114 N 1 0 0 1 0 0 3
EndChar

StartChar: circumflex
Encoding: 710 710 335
GlifName: circumflex
Width: 969
Flags: HMW
LayerCount: 2
Fore
SplineSet
744 1350 m 1
 334 1206 l 1
 320 1220 l 1
 644 1540 l 1
 854 1540 l 1
 1090 1220 l 1
 1076 1206 l 1
 744 1350 l 1
EndSplineSet
EndChar

StartChar: caron
Encoding: 711 711 336
GlifName: caron
Width: 969
Flags: HMW
LayerCount: 2
Fore
SplineSet
630 1470 m 1
 1040 1614 l 1
 1054 1600 l 1
 730 1280 l 1
 520 1280 l 1
 284 1600 l 1
 298 1614 l 1
 630 1470 l 1
EndSplineSet
EndChar

StartChar: pi
Encoding: 960 960 337
GlifName: pi
Width: 1401
VWidth: 2309
Flags: HMW
LayerCount: 2
Fore
SplineSet
248 -20 m 0
 146 -20 70 46 70 136 c 0
 70 412 392 186 520 598 c 2
 614 900 l 1
 726 900 l 1
 616 486 l 2
 538 190 524 -20 248 -20 c 0
1292 206 m 1
 1226 66 1122 -20 936 -20 c 0
 742 -20 650 128 682 258 c 2
 832 840 l 1
 1252 840 l 1
 1082 214 l 2
 1062 140 1094 116 1142 116 c 0
 1194 116 1234 148 1272 218 c 1
 1292 206 l 1
1432 920 m 1
 1322 540 l 1
 150 540 l 1
 114 390 l 1
 86 390 l 1
 214 920 l 1
 1432 920 l 1
EndSplineSet
EndChar

StartChar: uni1E9E
Encoding: 7838 7838 338
GlifName: uni1E_9E_
Width: 1821
VWidth: 2309
Flags: HMW
LayerCount: 2
Fore
SplineSet
756 312 m 0
 756 444 840 562 970 562 c 0
 1090 562 1178 482 1178 370 c 0
 1178 266 1062 180 964 180 c 0
 880 180 830 214 796 252 c 1
 828 88 944 10 1092 10 c 0
 1270 10 1340 312 1340 500 c 0
 1340 688 1264 798 1146 798 c 1
 1146 818 l 1
 1508 818 1762 740 1762 480 c 0
 1762 100 1394 -20 1112 -20 c 0
 864 -20 756 132 756 312 c 0
-50 28 m 1
 730 28 l 1
 730 0 l 1
 -50 0 l 1
 -50 28 l 1
1146 804 m 1
 1146 824 l 1
 1404 824 1460 1094 1460 1262 c 0
 1460 1406 1374 1496 1246 1496 c 0
 918 1496 832 1232 770 962 c 2
 550 0 l 1
 130 0 l 1
 360 982 l 2
 446 1366 760 1520 1266 1520 c 0
 1592 1520 1892 1448 1892 1202 c 0
 1892 942 1548 804 1146 804 c 1
EndSplineSet
EndChar

StartChar: uni203D
Encoding: 8253 8253 339
GlifName: uni203D_
Width: 1279
Flags: HMW
LayerCount: 2
Fore
SplineSet
916 1118 m 0
 884 904 672 856 592 556 c 1
 564 556 l 1
 624 856 560 886 560 1038 c 0
 560 1190 610 1296 748 1296 c 0
 858 1296 932 1220 916 1118 c 0
1008 1220 m 0
 1008 1368 970 1490 772 1490 c 0
 544 1490 302 1348 234 1244 c 1
 266 1266 330 1284 366 1284 c 0
 444 1284 528 1220 528 1100 c 0
 528 960 404 898 314 898 c 0
 214 898 140 980 140 1102 c 0
 140 1306 488 1520 792 1520 c 0
 1094 1520 1370 1440 1370 1180 c 0
 1370 860 962 670 600 670 c 1
 600 688 l 1
 834 750 1008 974 1008 1220 c 0
EndSplineSet
Refer: 1 46 N 1 0 0 1 218 0 2
EndChar

StartChar: R.alt
Encoding: 65536 -1 340
GlifName: R_.alt
Width: 1619
Flags: HMW
LayerCount: 2
Fore
SplineSet
1460 0 m 1
 1428 0 1292 0 1220 0 c 0
 574 0 1222 756 750 756 c 2
 640 756 l 1
 640 770 l 1
 890 770 l 2
 1676 770 1144 28 1410 28 c 0
 1432 28 1460 28 1460 28 c 1
 1460 0 l 1
460 1500 m 1
 890 1500 l 1
 540 0 l 1
 110 0 l 1
 460 1500 l 1
-70 28 m 1
 760 28 l 1
 760 0 l 1
 -70 0 l 1
 -70 28 l 1
870 766 m 2
 640 766 l 1
 640 784 l 1
 770 784 l 2
 1062 784 1130 1122 1130 1280 c 0
 1130 1378 1082 1472 930 1472 c 2
 260 1472 l 1
 260 1500 l 1
 1070 1500 l 2
 1332 1500 1560 1420 1560 1200 c 0
 1560 920 1272 766 870 766 c 2
EndSplineSet
EndChar

StartChar: J.alt
Encoding: 65537 -1 341
GlifName: J_.alt
Width: 1441
Flags: HMW
LayerCount: 2
Fore
SplineSet
792 1500 m 1
 1672 1500 l 1
 1672 1472 l 1
 792 1472 l 1
 792 1500 l 1
1032 1500 m 1
 1472 1500 l 1
 1252 560 l 2
 1180 256 744 -20 422 -20 c 0
 208 -20 10 128 10 368 c 0
 10 552 124 680 284 680 c 0
 434 680 536 584 536 432 c 0
 536 302 422 186 274 186 c 0
 156 186 64 272 46 314 c 1
 56 154 226 8 422 8 c 0
 664 8 754 232 812 500 c 2
 1032 1500 l 1
EndSplineSet
EndChar

StartChar: four.alt
Encoding: 65538 -1 342
GlifName: four.alt
Width: 1429
VWidth: 2309
Flags: HMW
LayerCount: 2
Fore
SplineSet
1280 996 m 1
 1058 -2 l 1
 628 -2 l 1
 820 856 l 1
 960 856 1180 936 1280 996 c 1
1224 28 m 1
 1224 0 l 1
 454 0 l 1
 454 28 l 1
 1224 28 l 1
96 404 m 1
 1330 404 l 1
 1330 376 l 1
 30 376 l 1
 370 776 800 1180 900 1500 c 1
 1376 1500 l 1
 1318 1130 376 732 96 404 c 1
EndSplineSet
EndChar

StartChar: fj.lig
Encoding: 65539 -1 343
GlifName: fj.lig
Width: 1567
VWidth: 2309
Flags: HMW
LayerCount: 2
Fore
SplineSet
842 140 m 2
 1018 892 l 1
 172 892 l 1
 172 920 l 1
 1406 920 l 1
 1232 76 l 2
 1180 -174 888 -420 628 -420 c 0
 446 -420 282 -306 282 -172 c 0
 282 -50 386 42 506 42 c 0
 616 42 708 -40 708 -134 c 0
 708 -248 610 -340 502 -340 c 0
 468 -340 424 -326 412 -300 c 1
 444 -356 532 -386 618 -386 c 0
 818 -386 786 -100 842 140 c 2
1298 1396 m 1
 1272 1448 1186 1488 1080 1488 c 0
 920 1488 774 1324 732 1080 c 2
 540 -24 l 2
 472 -412 204 -520 -56 -520 c 0
 -278 -520 -410 -386 -410 -262 c 0
 -410 -140 -338 -58 -218 -58 c 0
 -108 -58 -4 -126 -4 -246 c 0
 -4 -366 -98 -444 -204 -444 c 0
 -252 -444 -292 -410 -300 -396 c 1
 -278 -436 -194 -488 -102 -488 c 0
 38 -488 124 -324 166 -80 c 2
 358 1024 l 2
 426 1412 734 1520 1034 1520 c 0
 1296 1520 1408 1386 1408 1262 c 0
 1408 1140 1336 1058 1216 1058 c 0
 1106 1058 1002 1126 1002 1246 c 0
 1002 1366 1096 1444 1202 1444 c 0
 1244 1444 1280 1418 1298 1396 c 1
EndSplineSet
LCarets2: 1 0
Ligature2: "'liga' Standard Ligatures lookup 0-1" f j
EndChar

StartChar: v.alt
Encoding: 65540 -1 344
Width: 1211
VWidth: 2309
Flags: HW
LayerCount: 2
Fore
SplineSet
530 950 m 1
 540 932 l 1
 458 886 430 840 430 760 c 0
 430 600 668 518 668 270 c 0
 668 236 660 150 656 104 c 1
 958 260 1174 424 1174 688 c 0
 1174 692 1174 696 1172 700 c 1
 1162 648 1084 510 944 510 c 0
 804 510 724 614 724 724 c 0
 724 844 812 938 946 938 c 0
 1132 938 1202 810 1202 688 c 0
 1202 350 858 166 468 -24 c 1
 256 8 l 1
 260 52 286 172 286 212 c 0
 286 366 60 498 60 646 c 0
 60 806 270 882 530 950 c 1
EndSplineSet
EndChar

StartChar: uni2116
Encoding: 8470 8470 345
Width: 2411
Flags: HW
LayerCount: 2
Fore
SplineSet
1728 644 m 1
 2268 644 l 1
 2266 616 l 1
 1726 616 l 1
 1728 644 l 1
2206 1520 m 0
 2394 1520 2530 1434 2530 1248 c 0
 2530 924 2272 760 2030 760 c 0
 1842 760 1706 846 1706 1032 c 0
 1706 1356 1964 1520 2206 1520 c 0
1974 900 m 0
 1974 820 1996 788 2040 788 c 0
 2142 788 2262 1172 2262 1380 c 0
 2262 1460 2240 1492 2196 1492 c 0
 2094 1492 1974 1108 1974 900 c 0
EndSplineSet
Refer: 25 78 N 1 0 0 1 52 0 2
EndChar

StartChar: Euro
Encoding: 8364 8364 346
Width: 1639
Flags: HW
LayerCount: 2
Fore
SplineSet
1584 1322 m 1
 1550 1374 1430 1488 1240 1488 c 0
 862 1488 698 758 698 330 c 0
 698 102 832 22 970 22 c 0
 1142 22 1364 178 1436 356 c 1
 1466 356 l 1
 1394 162 1148 -20 906 -20 c 0
 624 -20 266 130 266 550 c 0
 266 1130 696 1520 1218 1520 c 0
 1462 1520 1690 1336 1690 1172 c 0
 1690 1030 1576 948 1476 948 c 0
 1386 948 1262 1020 1262 1160 c 0
 1262 1290 1380 1370 1478 1370 c 0
 1522 1370 1566 1346 1584 1322 c 1
EndSplineSet
Refer: 88 61 N 1 0 0 1 -60 -140 2
EndChar

